<?xml version="1.0" encoding="utf-8"?>
<!-- Generator: Adobe Illustrator 18.0.0, SVG Export Plug-In . SVG Version: 6.00 Build 0)  -->
<!DOCTYPE svg PUBLIC "-//W3C//DTD SVG 1.1//EN" "http://www.w3.org/Graphics/SVG/1.1/DTD/svg11.dtd">
<svg version="1.1" id="Layer_1" xmlns="http://www.w3.org/2000/svg" xmlns:xlink="http://www.w3.org/1999/xlink" x="0px" y="0px"
	 viewBox="0 0 608.4 318.2" enable-background="new 0 0 608.4 318.2" xml:space="preserve">
<g>
	<g>
		
			<linearGradient id="SVGID_1_" gradientUnits="userSpaceOnUse" x1="254.2161" y1="98.5224" x2="363.9226" y2="98.5224" gradientTransform="matrix(0.9798 -0.1999 0.1999 0.9798 -61.3131 116.0346)">
			<stop  offset="0" style="stop-color:#F59F1F"/>
			<stop  offset="1" style="stop-color:#7F3F98"/>
		</linearGradient>
		<path fill="url(#SVGID_1_)" d="M249.4,175.2l-0.9-11.1c-0.1-0.3-0.2-0.5-0.4-0.5c-0.2,0-0.4,0.3-0.8,0.9c-1.1,1.9-2.6,4.2-4.4,7
			c-1.8,2.8-5,6.6-9.7,11.6c-4.7,5-8.7,7.8-12.1,8.5c-0.6,0-1.3-0.1-2.2-0.2c-0.9-0.1-2.2-0.8-3.9-2.1c-1.7-1.3-2.8-3.4-3.4-6.3
			c-0.6-2.9,0.7-7.8,3.9-14.8c3.2-6.9,7.3-13.9,12.3-21c5-7.1,10.9-13.5,17.6-19.3c6.7-5.8,12.9-9.3,18.5-10.5
			c2.2-0.3,4.2,0.9,6,3.5c0.9-1.4,1.8-2.1,2.7-2.3c0.9-0.2,2.1,0.3,3.6,1.4c0.7,0,1.4,0.2,2.2,0.7c0.8,0.5,1.3,1.3,1.5,2.4
			c0.2,1.1-0.3,2.5-1.6,4.2c-1.8,3.4-3.8,7.3-6.2,11.6c-2.4,4.4-4.1,7.5-5.1,9.4c-1,1.9-2.1,4-3.1,6.3c-1.8,4-2.5,7.1-2.3,9.3
			c10.4-7.9,26-23.4,46.9-46.7c1.2,0.6,1.9,1.4,2.1,2.6c0.2,1.1,0,2.2-0.8,3.1c-0.7,1-1.6,2.2-2.7,3.5c-1.1,1.4-3.2,4.1-6.3,8.1
			c-3.2,4-6.2,7.9-9.1,11.6c-2.9,3.7-6.3,7.9-10.1,12.4c-3.8,4.6-7.3,8.5-10.3,11.9c-7.4,8-12.2,12.2-14.3,12.6
			c-2.1,0.4-3.8,0.1-5-1.1C251.1,181,250.1,178.7,249.4,175.2z M230.7,171.6c1.3-0.3,4.9-3.9,10.7-10.8c5.8-6.9,11.2-13.8,16.3-20.5
			l7.8-10.2c0.4-0.5,0.5-0.9,0.5-1.1c0-0.2-0.2-0.2-0.6-0.2c-4.3,0.9-9.3,4.5-15.2,10.7c-5.9,6.3-10.7,12.7-14.6,19.2
			c-3.9,6.5-5.6,10.7-5.3,12.6C230.4,171.6,230.5,171.6,230.7,171.6z"/>
		
			<linearGradient id="SVGID_2_" gradientUnits="userSpaceOnUse" x1="321.9005" y1="71.3111" x2="456.7529" y2="71.3111" gradientTransform="matrix(0.9798 -0.1999 0.1999 0.9798 -61.3131 116.0346)">
			<stop  offset="0" style="stop-color:#F59F1F"/>
			<stop  offset="1" style="stop-color:#7F3F98"/>
		</linearGradient>
		<path fill="url(#SVGID_2_)" d="M326.8,154.6c0.1,0.3,0.5,0.4,1.2,0.3c0.7-0.1,3.7-2.5,8.8-7.1c13.5-11.8,29.2-27,46.9-45.8
			c1.2,0.6,1.9,1.4,2.1,2.6c0.2,1.1-0.1,2.3-1,3.6c-0.9,1.2-2.2,3-3.9,5.4c-1.7,2.3-5,6.6-9.8,12.7c-4.8,6.1-9.4,11.8-13.6,16.8
			c-11.1,13.4-19.6,21.7-25.5,24.9c-1.9,1-4,1.7-6.4,2.2c-2.3,0.1-4.5-0.3-6.7-1.3c-2.1-1-3.4-2.4-3.7-4.2c-0.4-1.8-0.5-4.6-0.4-8.3
			c0.1-3.7,0.2-5.7,0.1-6c-0.1-0.3-0.2-0.4-0.3-0.4c-0.2,0-0.4,0.3-0.8,0.9c-1.1,1.9-2.6,4.2-4.4,7c-1.8,2.8-5,6.6-9.7,11.6
			c-4.7,5-8.7,7.8-12.1,8.5c-0.6,0-1.3-0.1-2.2-0.2c-0.9-0.1-2.2-0.8-3.9-2.1c-1.7-1.3-2.8-3.4-3.4-6.3c-0.6-2.9,0.7-7.8,3.8-14.8
			c3.2-6.9,7.3-13.9,12.4-21c5.1-7.1,11-13.5,17.7-19.3c6.7-5.8,12.8-9.3,18.4-10.4c2-0.4,4,0.8,6,3.5c-0.3-0.8,2.3-6.6,7.9-17.5
			c5.5-10.9,12.4-22.2,20.6-33.7c8.2-11.6,15.2-17.9,20.8-19.1c1.9-0.4,3.1,0.3,3.4,2.1c0.6,2.8-0.5,7-3.3,12.6
			c-2.8,5.6-5.9,10.9-9.4,16c-3.5,5-8,11.4-13.6,19.1c-12.9,17.6-22.4,32.3-28.4,44.1C328.6,142.9,326,150.7,326.8,154.6z
			 M297.1,158.1c1.3-0.3,4.9-3.9,10.7-10.8c5.8-6.9,11.3-13.8,16.5-20.6l7.6-10.2c0.4-0.5,0.5-0.9,0.5-1.1c0-0.2-0.2-0.2-0.6-0.2
			c-4.3,0.9-9.3,4.5-15.2,10.7c-5.9,6.3-10.7,12.7-14.6,19.2c-3.9,6.5-5.6,10.7-5.3,12.6C296.7,158,296.8,158.1,297.1,158.1z"/>
		
			<linearGradient id="SVGID_3_" gradientUnits="userSpaceOnUse" x1="398.8828" y1="71.3111" x2="533.7352" y2="71.3111" gradientTransform="matrix(0.9798 -0.1999 0.1999 0.9798 -61.3131 116.0346)">
			<stop  offset="0" style="stop-color:#F59F1F"/>
			<stop  offset="1" style="stop-color:#7F3F98"/>
		</linearGradient>
		<path fill="url(#SVGID_3_)" d="M402.2,139.3c0.1,0.3,0.5,0.4,1.2,0.3c0.7-0.1,3.7-2.5,8.8-7.1c13.5-11.8,29.2-27,46.9-45.8
			c1.2,0.6,1.9,1.4,2.1,2.6c0.2,1.1-0.1,2.3-1,3.6c-0.9,1.2-2.2,3-3.9,5.4c-1.7,2.3-5,6.6-9.8,12.7c-4.8,6.1-9.4,11.8-13.6,16.8
			c-11.1,13.4-19.6,21.7-25.5,24.9c-1.9,1-4,1.7-6.4,2.2c-2.3,0.1-4.5-0.3-6.7-1.3c-2.1-1-3.4-2.4-3.7-4.2c-0.4-1.8-0.5-4.6-0.4-8.3
			s0.2-5.7,0.1-6c-0.1-0.3-0.2-0.4-0.3-0.4c-0.2,0-0.4,0.3-0.8,0.9c-1.1,1.9-2.6,4.2-4.4,7c-1.8,2.8-5,6.6-9.7,11.6
			c-4.7,5-8.7,7.8-12.1,8.5c-0.6,0-1.3-0.1-2.2-0.2c-0.9-0.1-2.2-0.8-3.9-2.1c-1.7-1.3-2.8-3.4-3.4-6.3c-0.6-2.9,0.7-7.8,3.8-14.8
			c3.2-6.9,7.3-13.9,12.4-21c5.1-7.1,11-13.5,17.7-19.3c6.7-5.8,12.8-9.3,18.4-10.4c2-0.4,4,0.8,6,3.5c-0.3-0.8,2.3-6.6,7.9-17.5
			c5.5-10.9,12.4-22.2,20.6-33.7c8.2-11.6,15.2-17.9,20.8-19.1c1.9-0.4,3.1,0.3,3.4,2.1c0.6,2.8-0.5,7-3.3,12.6
			c-2.8,5.6-5.9,10.9-9.4,16c-3.5,5-8,11.4-13.6,19.1c-12.9,17.6-22.4,32.3-28.4,44.1C404,127.5,401.4,135.3,402.2,139.3z
			 M372.5,142.7c1.3-0.3,4.9-3.9,10.7-10.8c5.8-6.9,11.3-13.8,16.5-20.6l7.6-10.2c0.4-0.5,0.5-0.9,0.5-1.1c0-0.2-0.2-0.2-0.6-0.2
			c-4.3,0.9-9.3,4.5-15.2,10.7c-5.9,6.3-10.7,12.7-14.6,19.2c-3.9,6.5-5.6,10.7-5.3,12.6C372.1,142.6,372.3,142.7,372.5,142.7z"/>
		
			<linearGradient id="SVGID_4_" gradientUnits="userSpaceOnUse" x1="489.1277" y1="76.1334" x2="586.607" y2="76.1334" gradientTransform="matrix(0.9798 -0.1999 0.1999 0.9798 -61.3131 116.0346)">
			<stop  offset="0" style="stop-color:#F59F1F"/>
			<stop  offset="1" style="stop-color:#7F3F98"/>
		</linearGradient>
		<path fill="url(#SVGID_4_)" d="M457.8,128.4c3.7-0.8,10.4-5.6,20-14.4c9.6-8.9,18.2-17.5,25.9-26l11.6-12.7
			c1.2,0.6,1.9,1.4,2.1,2.6c0.2,1.1-0.1,2.3-1,3.6c-0.9,1.2-2.2,3-3.9,5.4c-1.7,2.3-5,6.6-9.8,12.7c-4.8,6.1-9.4,11.8-13.6,16.8
			c-11.1,13.4-19.6,21.7-25.5,24.9c-1.9,1-3.9,1.7-6.1,2.1c-2.1,0.4-3.9,0.6-5.2,0.5c-1.3-0.1-2.8-0.5-4.5-1.4
			c-3.4-1.9-6-7.1-7.8-15.6c-0.5-2.4-0.2-6.2,0.8-11.4c1-5.2,3.2-11.8,6.5-19.6c3.3-7.8,7.3-15.8,12.2-23.9
			c4.8-8.1,11.4-16.6,19.6-25.4c8.2-8.8,17.3-16.5,27.4-23c1.6-0.9,3-1.5,4.4-1.8c1.4-0.3,2.7,0.1,4.1,1c1.4,1,2.4,2,3.1,3.1
			l1.2,1.5c0.5,2.6-2.3,9.1-8.5,19.5c-6.4,10.8-14.1,21.4-23.1,31.9c-9.1,10.5-17.6,19.6-25.6,27.3c-6.5,6.5-9.2,12.4-8.1,17.8
			C454.6,127.3,455.9,128.8,457.8,128.4z M465.9,90.4c2.8-0.6,9.9-9.2,21.3-26c11.4-16.7,17-25.9,16.6-27.5l-0.2-0.3l-2.6,1.9
			c-5.1,5-11.5,13.1-19.4,24.3c-7.9,11.2-13.1,19.8-15.8,25.7c-0.3,0.7-0.5,1.1-0.4,1.4C465.5,90.3,465.7,90.5,465.9,90.4z"/>
		
			<linearGradient id="SVGID_5_" gradientUnits="userSpaceOnUse" x1="543.2056" y1="98.4362" x2="640.6848" y2="98.4362" gradientTransform="matrix(0.9798 -0.1999 0.1999 0.9798 -61.3131 116.0346)">
			<stop  offset="0" style="stop-color:#F59F1F"/>
			<stop  offset="1" style="stop-color:#7F3F98"/>
		</linearGradient>
		<path fill="url(#SVGID_5_)" d="M510,132.6c-8.7,1.8-14.1-2.6-16.2-13.2c-1.4-6.6,0.1-14.3,4.4-23c4.3-8.7,9.9-16.2,16.8-22.6
			c6.9-6.4,13.4-10.2,19.5-11.4c2.7-0.6,5.4,0,8.2,1.7c2.7,1.7,4.3,3.5,4.7,5.5c0.8,3.7-1,8.4-5.4,14.2c-4.3,5.7-9.1,10.6-14.3,14.7
			c-5.2,4.1-8.7,6.3-10.6,6.6c-1.9,0.4-3.4-0.2-4.7-1.7c-0.5-0.2-1.2-0.3-2-0.1c-0.8,0.2-1.8,1.9-3,5.3c-1.2,3.3-1.6,6-1.2,7.8
			c0.4,1.9,1.3,2.9,2.7,3c8.5-1.7,17.3-6.1,26.3-13.2c9-7,21-18.7,36.1-34.9c1.1-1.2,2.7-2.9,4.8-5.2c2.2-2.3,3.4-3.7,3.8-4.1
			c1.2,0.6,1.9,1.4,2.1,2.6c0.2,1.1-0.1,2.2-0.9,3.3c-4.5,6.8-10.5,14.6-18,23.4c-7.5,8.8-16.4,17.5-26.8,26.1
			C526.1,126,517.3,131.1,510,132.6z M534.9,71.2c-2.9,0.6-7.3,4.6-13,12.1c-5.7,7.4-8.5,11.8-8.2,13.2c0,0.2,0.2,0.3,0.6,0.2
			c2.5-0.5,6.8-4.3,13.1-11.3c6.2-7,9.2-11.5,8.7-13.6C536,71.3,535.6,71.1,534.9,71.2z"/>
	</g>
	
		<linearGradient id="SVGID_6_" gradientUnits="userSpaceOnUse" x1="-13.0825" y1="226.1618" x2="585.9836" y2="226.1618" gradientTransform="matrix(0.9971 7.647409e-02 -7.647409e-02 0.9971 36.2754 -33.5811)">
		<stop  offset="0" style="stop-color:#7F3F98"/>
		<stop  offset="1" style="stop-color:#F59F1F"/>
	</linearGradient>
	<path fill="url(#SVGID_6_)" d="M23.5,230.1c-5.3,6.7-7.4,6.6-23.5,38.2c20.2-18.6,158.4-67,158.4-67l-37.4,73.6
		c347.5-162.9,487.5-105,487.5-105c-168.4-67.1-469.6,81.3-469.6,81.3l44.3-77.8c0,0-107.5,46.1-146.5,53.6
		C20.5,230.1,23.5,230.1,23.5,230.1z"/>
	
		<linearGradient id="SVGID_7_" gradientUnits="userSpaceOnUse" x1="39.774" y1="175.327" x2="247.4058" y2="175.327" gradientTransform="matrix(0.9956 9.365986e-02 -9.365986e-02 0.9956 39.1655 -27.5141)">
		<stop  offset="0" style="stop-color:#F59F1F"/>
		<stop  offset="1" style="stop-color:#7F3F98"/>
	</linearGradient>
	<path fill="url(#SVGID_7_)" d="M279.9,39.4c-2.4-9.2-7-16.9-13.9-23.1c-6.9-6.2-14.8-10.4-23.7-12.8C224-1.1,206-1.2,188.4,3.3
		c-17.6,4.5-34.9,11.9-52,22.2c-17.1,10.3-30.8,21.2-41.1,32.5C85,69.4,77.1,80.5,71.8,91.6c-5.3,11-7,20.4-5,28.1
		c2,7.7,6.2,13.1,12.7,16.2c6.5,3.1,12.5,3.9,18,2.5c5.5-1.4,10.9-4.3,16.1-8.6c5.2-4.3,9.6-9.1,13.3-14.3c3.7-5.2,7-10.4,9.9-15.7
		c2.9-5.3,5.1-9.7,6.6-13.3c1.5-3.6,2.2-5.6,2.1-6c-0.1-0.5-0.4-0.6-0.9-0.5c-0.5,0.1-1.2,0.7-2.3,1.7
		c-14.8,14.6-30.5,27.2-47.1,37.8c-5.2,3.2-8.4,5-9.6,5.4c-1.3,0.3-2.1-0.2-2.4-1.6c-0.3-1.4,1.2-4.9,4.7-10.5
		c3.5-5.6,9-12.5,16.6-20.7c7.6-8.2,16.3-16.5,26.3-24.8C140.6,59,152.7,51,167,43.4c14.3-7.6,28-13.1,41.1-16.4
		c13.1-3.4,25.8-5,38-5c12.2,0,19,3,20.5,9c1.8,7.3-0.6,16.2-7.3,26.9c-6.7,10.7-15.4,20.7-25.9,30.1c-10.6,9.4-21.5,17.7-32.9,25
		c-11.4,7.3-20.7,11.9-27.9,13.8c-1.6,0.4-2.6,0-2.9-1.3c-0.1-0.5-0.1-1.1,0.1-1.8l11.4-23.7c1.9-3.8,7.9-14.5,17.9-32.1
		c0.5-0.9,0.6-2,0.3-3.3c-0.3-1.3-1.4-2.2-3.1-2.7c-1.8-0.5-3.4-0.6-4.8-0.2c-1.5,0.4-3.4,1.7-6,3.8c-12,11.2-18,16.3-40.7,59.5
		C129,155.2,119.1,177.8,115,193c-0.2,0.2-0.4,0.3-0.4,0.3S64.8,324.7,83.2,317.9c0,0,46-100.3,63.2-138.4c0.1,0,0.2,0,0.3,0
		c0.5-1.4,1.1-2.9,1.7-4.3c2.2-4.9,3.7-8.2,4.2-9.5c0.3-0.8,0.3-1.2,0.2-1.5c3.8-9.5,8.1-20.2,12.9-31.9c8,8.8,18.2,11.6,30.4,8.5
		c12.2-3.1,25.6-11,40-23.7c14.4-12.7,25.9-26.5,34.5-41.4C279.1,60.7,282.2,48.6,279.9,39.4z"/>
</g>
</svg>
