<?xml version="1.0" encoding="utf-8"?>
<!-- Generator: Adobe Illustrator 18.0.0, SVG Export Plug-In . SVG Version: 6.00 Build 0)  -->
<!DOCTYPE svg PUBLIC "-//W3C//DTD SVG 1.1//EN" "http://www.w3.org/Graphics/SVG/1.1/DTD/svg11.dtd">
<svg version="1.1" id="Layer_1" xmlns="http://www.w3.org/2000/svg" xmlns:xlink="http://www.w3.org/1999/xlink" x="0px" y="0px"
	 viewBox="0 0 307 177.5" enable-background="new 0 0 307 177.5" xml:space="preserve">
<g>
	<g>
		
			<linearGradient id="SVGID_1_" gradientUnits="userSpaceOnUse" x1="702.5412" y1="-150.5809" x2="812.2477" y2="-150.5809" gradientTransform="matrix(0.9798 -0.1999 0.1999 0.9798 -2.4738 200.6208)">
			<stop  offset="0" style="stop-color:#F59F1F"/>
			<stop  offset="1" style="stop-color:#7F3F98"/>
		</linearGradient>
		<path fill="url(#SVGID_1_)" d="M697.7-73.9L696.9-85c-0.1-0.3-0.2-0.5-0.4-0.5c-0.2,0-0.4,0.3-0.8,0.9c-1.1,1.9-2.6,4.2-4.4,7
			c-1.8,2.8-5,6.6-9.7,11.6c-4.7,5-8.7,7.8-12.1,8.5c-0.6,0-1.3-0.1-2.2-0.2c-0.9-0.1-2.2-0.8-3.9-2.1c-1.7-1.3-2.8-3.4-3.4-6.3
			c-0.6-2.9,0.7-7.8,3.9-14.8c3.2-6.9,7.3-13.9,12.3-21c5-7.1,10.9-13.5,17.6-19.3c6.7-5.8,12.9-9.3,18.5-10.5
			c2.2-0.3,4.2,0.9,6,3.5c0.9-1.4,1.8-2.1,2.7-2.3c0.9-0.2,2.1,0.3,3.6,1.4c0.7,0,1.4,0.2,2.2,0.7c0.8,0.5,1.3,1.3,1.5,2.4
			c0.2,1.1-0.3,2.5-1.6,4.2c-1.8,3.4-3.8,7.3-6.2,11.6c-2.4,4.4-4.1,7.5-5.1,9.4c-1,1.9-2.1,4-3.1,6.3c-1.8,4-2.5,7.1-2.3,9.3
			c10.4-7.9,26-23.4,46.9-46.7c1.2,0.6,1.9,1.4,2.1,2.6c0.2,1.1,0,2.2-0.8,3.1c-0.7,1-1.6,2.2-2.7,3.5c-1.1,1.4-3.2,4.1-6.3,8.1
			c-3.2,4-6.2,7.9-9.1,11.6c-2.9,3.7-6.3,7.9-10.1,12.4c-3.8,4.6-7.3,8.5-10.3,11.9c-7.4,8-12.2,12.2-14.3,12.6
			c-2.1,0.4-3.8,0.1-5-1.1C699.4-68.1,698.4-70.4,697.7-73.9z M679.1-77.5c1.3-0.3,4.9-3.9,10.7-10.8c5.8-6.9,11.2-13.8,16.3-20.5
			l7.8-10.2c0.4-0.5,0.5-0.9,0.5-1.1c0-0.2-0.2-0.2-0.6-0.2c-4.3,0.9-9.3,4.5-15.2,10.7c-5.9,6.3-10.7,12.7-14.6,19.2
			c-3.9,6.5-5.6,10.7-5.3,12.6C678.7-77.5,678.8-77.5,679.1-77.5z"/>
		
			<linearGradient id="SVGID_2_" gradientUnits="userSpaceOnUse" x1="770.2256" y1="-177.7922" x2="905.078" y2="-177.7922" gradientTransform="matrix(0.9798 -0.1999 0.1999 0.9798 -2.4738 200.6208)">
			<stop  offset="0" style="stop-color:#F59F1F"/>
			<stop  offset="1" style="stop-color:#7F3F98"/>
		</linearGradient>
		<path fill="url(#SVGID_2_)" d="M775.1-94.5c0.1,0.3,0.5,0.4,1.2,0.3c0.7-0.1,3.7-2.5,8.8-7.1c13.5-11.8,29.2-27,46.9-45.8
			c1.2,0.6,1.9,1.4,2.1,2.6c0.2,1.1-0.1,2.3-1,3.6c-0.9,1.2-2.2,3-3.9,5.4c-1.7,2.3-5,6.6-9.8,12.7c-4.8,6.1-9.4,11.8-13.6,16.8
			c-11.1,13.4-19.6,21.7-25.5,24.9c-1.9,1-4,1.7-6.4,2.2c-2.3,0.1-4.5-0.3-6.7-1.3c-2.1-1-3.4-2.4-3.7-4.2c-0.4-1.8-0.5-4.6-0.4-8.3
			s0.2-5.7,0.1-6c-0.1-0.3-0.2-0.4-0.3-0.4c-0.2,0-0.4,0.3-0.8,0.9c-1.1,1.9-2.6,4.2-4.4,7c-1.8,2.8-5,6.6-9.7,11.6
			c-4.7,5-8.7,7.8-12.1,8.5c-0.6,0-1.3-0.1-2.2-0.2c-0.9-0.1-2.2-0.8-3.9-2.1c-1.7-1.3-2.8-3.4-3.4-6.3c-0.6-2.9,0.7-7.8,3.8-14.8
			c3.2-6.9,7.3-13.9,12.4-21c5.1-7.1,11-13.5,17.7-19.3c6.7-5.8,12.8-9.3,18.4-10.4c2-0.4,4,0.8,6,3.5c-0.3-0.8,2.3-6.6,7.9-17.5
			c5.5-10.9,12.4-22.2,20.6-33.7c8.2-11.6,15.2-17.9,20.8-19.1c1.9-0.4,3.1,0.3,3.4,2.1c0.6,2.8-0.5,7-3.3,12.6
			c-2.8,5.6-5.9,10.9-9.4,16c-3.5,5-8,11.4-13.6,19.1c-12.9,17.6-22.4,32.3-28.4,44.1C776.9-106.2,774.3-98.4,775.1-94.5z M745.4-91
			c1.3-0.3,4.9-3.9,10.7-10.8c5.8-6.9,11.3-13.8,16.5-20.6l7.6-10.2c0.4-0.5,0.5-0.9,0.5-1.1c0-0.2-0.2-0.2-0.6-0.2
			c-4.3,0.9-9.3,4.5-15.2,10.7c-5.9,6.3-10.7,12.7-14.6,19.2c-3.9,6.5-5.6,10.7-5.3,12.6C745-91.1,745.2-91,745.4-91z"/>
		
			<linearGradient id="SVGID_3_" gradientUnits="userSpaceOnUse" x1="847.2079" y1="-177.7922" x2="982.0604" y2="-177.7922" gradientTransform="matrix(0.9798 -0.1999 0.1999 0.9798 -2.4738 200.6208)">
			<stop  offset="0" style="stop-color:#F59F1F"/>
			<stop  offset="1" style="stop-color:#7F3F98"/>
		</linearGradient>
		<path fill="url(#SVGID_3_)" d="M850.5-109.8c0.1,0.3,0.5,0.4,1.2,0.3c0.7-0.1,3.7-2.5,8.8-7.1c13.5-11.8,29.2-27,46.9-45.8
			c1.2,0.6,1.9,1.4,2.1,2.6c0.2,1.1-0.1,2.3-1,3.6c-0.9,1.2-2.2,3-3.9,5.4c-1.7,2.3-5,6.6-9.8,12.7c-4.8,6.1-9.4,11.8-13.6,16.8
			c-11.1,13.4-19.6,21.7-25.5,24.9c-1.9,1-4,1.7-6.4,2.2c-2.3,0.1-4.5-0.3-6.7-1.3c-2.1-1-3.4-2.4-3.7-4.2c-0.4-1.8-0.5-4.6-0.4-8.3
			s0.2-5.7,0.1-6c-0.1-0.3-0.2-0.4-0.3-0.4c-0.2,0-0.4,0.3-0.8,0.9c-1.1,1.9-2.6,4.2-4.4,7c-1.8,2.8-5,6.6-9.7,11.6
			c-4.7,5-8.7,7.8-12.1,8.5c-0.6,0-1.3-0.1-2.2-0.2c-0.9-0.1-2.2-0.8-3.9-2.1c-1.7-1.3-2.8-3.4-3.4-6.3c-0.6-2.9,0.7-7.8,3.8-14.8
			c3.2-6.9,7.3-13.9,12.4-21c5.1-7.1,11-13.5,17.7-19.3c6.7-5.8,12.8-9.3,18.4-10.4c2-0.4,4,0.8,6,3.5c-0.3-0.8,2.3-6.6,7.9-17.5
			c5.5-10.9,12.4-22.2,20.6-33.7c8.2-11.6,15.2-17.9,20.8-19.1c1.9-0.4,3.1,0.3,3.4,2.1c0.6,2.8-0.5,7-3.3,12.6
			c-2.8,5.6-5.9,10.9-9.4,16c-3.5,5-8,11.4-13.6,19.1c-12.9,17.6-22.4,32.3-28.4,44.1C852.3-121.6,849.7-113.8,850.5-109.8z
			 M820.8-106.4c1.3-0.3,4.9-3.9,10.7-10.8c5.8-6.9,11.3-13.8,16.5-20.6l7.6-10.2c0.4-0.5,0.5-0.9,0.5-1.1c0-0.2-0.2-0.2-0.6-0.2
			c-4.3,0.9-9.3,4.5-15.2,10.7c-5.9,6.3-10.7,12.7-14.6,19.2c-3.9,6.5-5.6,10.7-5.3,12.6C820.5-106.5,820.6-106.4,820.8-106.4z"/>
		
			<linearGradient id="SVGID_4_" gradientUnits="userSpaceOnUse" x1="937.4529" y1="-172.9699" x2="1034.9321" y2="-172.9699" gradientTransform="matrix(0.9798 -0.1999 0.1999 0.9798 -2.4738 200.6208)">
			<stop  offset="0" style="stop-color:#F59F1F"/>
			<stop  offset="1" style="stop-color:#7F3F98"/>
		</linearGradient>
		<path fill="url(#SVGID_4_)" d="M906.1-120.7c3.7-0.8,10.4-5.6,20-14.4c9.6-8.9,18.2-17.5,25.9-26l11.6-12.7
			c1.2,0.6,1.9,1.4,2.1,2.6c0.2,1.1-0.1,2.3-1,3.6c-0.9,1.2-2.2,3-3.9,5.4c-1.7,2.3-5,6.6-9.8,12.7c-4.8,6.1-9.4,11.8-13.6,16.8
			c-11.1,13.4-19.6,21.7-25.5,24.9c-1.9,1-3.9,1.7-6.1,2.1c-2.1,0.4-3.9,0.6-5.2,0.5c-1.3-0.1-2.8-0.5-4.5-1.4
			c-3.4-1.9-6-7.1-7.8-15.6c-0.5-2.4-0.2-6.2,0.8-11.4c1-5.2,3.2-11.8,6.5-19.6c3.3-7.8,7.3-15.8,12.2-23.9
			c4.8-8.1,11.4-16.6,19.6-25.4c8.2-8.8,17.3-16.5,27.4-23c1.6-0.9,3-1.5,4.4-1.8c1.4-0.3,2.7,0.1,4.1,1c1.4,1,2.4,2,3.1,3.1
			l1.2,1.5c0.5,2.6-2.3,9.1-8.5,19.5c-6.4,10.8-14.1,21.4-23.1,31.9c-9.1,10.5-17.6,19.6-25.6,27.3c-6.5,6.5-9.2,12.4-8.1,17.8
			C902.9-121.8,904.2-120.3,906.1-120.7z M914.2-158.7c2.8-0.6,9.9-9.2,21.3-26c11.4-16.7,17-25.9,16.6-27.5l-0.2-0.3l-2.6,1.9
			c-5.1,5-11.5,13.1-19.4,24.3c-7.9,11.2-13.1,19.8-15.8,25.7c-0.3,0.7-0.5,1.1-0.4,1.4C913.8-158.8,914-158.7,914.2-158.7z"/>
		
			<linearGradient id="SVGID_5_" gradientUnits="userSpaceOnUse" x1="991.5307" y1="-150.6671" x2="1089.01" y2="-150.6671" gradientTransform="matrix(0.9798 -0.1999 0.1999 0.9798 -2.4738 200.6208)">
			<stop  offset="0" style="stop-color:#F59F1F"/>
			<stop  offset="1" style="stop-color:#7F3F98"/>
		</linearGradient>
		<path fill="url(#SVGID_5_)" d="M958.3-116.5c-8.7,1.8-14.1-2.6-16.2-13.2c-1.4-6.6,0.1-14.3,4.4-23c4.3-8.7,9.9-16.2,16.8-22.6
			c6.9-6.4,13.4-10.2,19.5-11.4c2.7-0.6,5.4,0,8.2,1.7c2.7,1.7,4.3,3.5,4.7,5.5c0.8,3.7-1,8.4-5.4,14.2c-4.3,5.7-9.1,10.6-14.3,14.7
			c-5.2,4.1-8.7,6.3-10.6,6.6c-1.9,0.4-3.4-0.2-4.7-1.7c-0.5-0.2-1.2-0.3-2-0.1c-0.8,0.2-1.8,1.9-3,5.3c-1.2,3.3-1.6,6-1.2,7.8
			c0.4,1.9,1.3,2.9,2.7,3c8.5-1.7,17.3-6.1,26.3-13.2c9-7,21-18.7,36.1-34.9c1.1-1.2,2.7-2.9,4.8-5.2c2.2-2.3,3.4-3.7,3.8-4.1
			c1.2,0.6,1.9,1.4,2.1,2.6c0.2,1.1-0.1,2.2-0.9,3.3c-4.5,6.8-10.5,14.6-18,23.4c-7.5,8.8-16.4,17.5-26.8,26.1
			C974.4-123.1,965.6-118,958.3-116.5z M983.2-177.9c-2.9,0.6-7.3,4.6-13,12.1c-5.7,7.4-8.5,11.8-8.2,13.2c0,0.2,0.2,0.3,0.6,0.2
			c2.5-0.5,6.8-4.3,13.1-11.3c6.2-7,9.2-11.5,8.7-13.6C984.3-177.8,983.9-178,983.2-177.9z"/>
	</g>
	
		<linearGradient id="SVGID_6_" gradientUnits="userSpaceOnUse" x1="435.2426" y1="-22.9415" x2="1034.3087" y2="-22.9415" gradientTransform="matrix(0.9971 7.647409e-02 -7.647409e-02 0.9971 18.5383 -68.5958)">
		<stop  offset="0" style="stop-color:#7F3F98"/>
		<stop  offset="1" style="stop-color:#F59F1F"/>
	</linearGradient>
	<path fill="url(#SVGID_6_)" d="M471.8-19c-5.3,6.7-7.4,6.6-23.5,38.2c20.2-18.6,158.4-67,158.4-67l-37.4,73.6
		c347.5-162.9,487.5-105,487.5-105C888.3-146.3,587.1,2.1,587.1,2.1l44.3-77.8c0,0-107.5,46.1-146.5,53.6
		C468.8-19,471.8-19,471.8-19z"/>
	
		<linearGradient id="SVGID_7_" gradientUnits="userSpaceOnUse" x1="488.0992" y1="-73.7763" x2="695.7309" y2="-73.7763" gradientTransform="matrix(0.9956 9.365986e-02 -9.365986e-02 0.9956 17.8052 -70.5992)">
		<stop  offset="0" style="stop-color:#F59F1F"/>
		<stop  offset="1" style="stop-color:#7F3F98"/>
	</linearGradient>
	<path fill="url(#SVGID_7_)" d="M728.2-209.7c-2.4-9.2-7-16.9-13.9-23.1c-6.9-6.2-14.8-10.4-23.7-12.8c-18.4-4.6-36.3-4.6-53.9-0.2
		c-17.6,4.5-34.9,11.9-52,22.2c-17.1,10.3-30.8,21.2-41.1,32.5c-10.3,11.3-18.2,22.5-23.5,33.5c-5.3,11-7,20.4-5,28.1
		c2,7.7,6.2,13.1,12.7,16.2c6.5,3.1,12.5,3.9,18,2.5c5.5-1.4,10.9-4.3,16.1-8.6c5.2-4.3,9.6-9.1,13.3-14.3c3.7-5.2,7-10.4,9.9-15.7
		c2.9-5.3,5.1-9.7,6.6-13.3c1.5-3.6,2.2-5.6,2.1-6c-0.1-0.5-0.4-0.6-0.9-0.5c-0.5,0.1-1.2,0.7-2.3,1.7
		c-14.8,14.6-30.5,27.2-47.1,37.8c-5.2,3.2-8.4,5-9.6,5.4c-1.3,0.3-2.1-0.2-2.4-1.6c-0.3-1.4,1.2-4.9,4.7-10.5
		c3.5-5.6,9-12.5,16.6-20.7c7.6-8.2,16.3-16.5,26.3-24.8c9.9-8.3,22.1-16.3,36.3-23.9c14.3-7.6,28-13.1,41.1-16.4
		c13.1-3.4,25.8-5,38-5c12.2,0,19,3,20.5,9c1.8,7.3-0.6,16.2-7.3,26.9c-6.7,10.7-15.4,20.7-25.9,30.1c-10.6,9.4-21.5,17.7-32.9,25
		c-11.4,7.3-20.7,11.9-27.9,13.8c-1.6,0.4-2.6,0-2.9-1.3c-0.1-0.5-0.1-1.1,0.1-1.8l11.4-23.7c1.9-3.8,7.9-14.5,17.9-32.1
		c0.5-0.9,0.6-2,0.3-3.3c-0.3-1.3-1.4-2.2-3.1-2.7c-1.8-0.5-3.4-0.6-4.8-0.2c-1.5,0.4-3.4,1.7-6,3.8c-12,11.2-18,16.3-40.7,59.5
		c-15.8,30.1-25.7,52.7-29.8,67.9c-0.2,0.2-0.4,0.3-0.4,0.3S513.1,75.6,531.6,68.8c0,0,46-100.3,63.2-138.4c0.1,0,0.2,0,0.3,0
		c0.5-1.4,1.1-2.9,1.7-4.3c2.2-4.9,3.7-8.2,4.2-9.5c0.3-0.8,0.3-1.2,0.2-1.5c3.8-9.5,8.1-20.2,12.9-31.9c8,8.8,18.2,11.6,30.4,8.5
		c12.2-3.1,25.6-11,40-23.7c14.4-12.7,25.9-26.5,34.5-41.4C727.4-188.4,730.5-200.5,728.2-209.7z"/>
</g>
<g>
	<g>
		<path fill="#F59F1F" d="M-100.3-127.8l-59.5-15.6c-2.3,3.7-3.9,7.8-4.2,12c-0.6,7.1,1.2,13.2-1.9,20c-0.5,1.1-1.1,2.3-1.7,3.3
			l-24.5,15.8c-0.2,0.1-0.5,0.4-0.8,0.7c-0.3,0.1-0.6,0.3-0.9,0.5c-2.5,1.8-2.8,5.8-0.6,8.9c2.2,3.1,6.1,4.2,8.6,2.5
			c0.3-0.2,0.5-0.4,0.8-0.7c0.4-0.2,0.8-0.4,1-0.5l23.3-18c1.8-0.6,4.8-0.5,6.2-0.5c6.9-0.1,12.8,4.4,19.6,4.8
			c7.5,0.5,15-1.5,21.2-5.8C-104.7-106.8-99.9-117.3-100.3-127.8z"/>
	</g>
	<g>
		<path fill="#552956" d="M-164.2-117.2c-0.3,1.9-0.8,3.9-1.7,5.9c-0.5,1.1-1.1,2.3-1.7,3.3l-24.5,15.8c-0.2,0.1-0.5,0.4-0.8,0.7
			c-0.3,0.1-0.6,0.3-0.9,0.5c-2.5,1.8-2.8,5.8-0.6,8.9c2.2,3.1,6.1,4.2,8.6,2.5c0.3-0.2,0.5-0.4,0.8-0.7c0.4-0.2,0.8-0.4,1-0.5
			l23.3-18c1.8-0.6,4.8-0.5,6.2-0.5c6.9-0.1,12.8,4.4,19.6,4.8c7.5,0.5,15-1.5,21.2-5.8c1.2-0.9,2.3-1.8,3.4-2.8L-164.2-117.2z"/>
	</g>
	<g>
		<path fill="#E16A5E" d="M-100.4-127.6c-0.3-5.9-2.2-11.8-5.8-16.9c-10.2-14.5-30.3-17.9-44.7-7.7c-3.3,2.4-6.4,5.5-8.7,9.1
			L-100.4-127.6z"/>
	</g>
</g>
<linearGradient id="SVGID_8_" gradientUnits="userSpaceOnUse" x1="-59.0695" y1="-399.6897" x2="52.8451" y2="-399.6897" gradientTransform="matrix(0.8108 0.5853 -0.5853 0.8108 -253.3084 -47.8202)">
	<stop  offset="0" style="stop-color:#7F3F98"/>
	<stop  offset="1" style="stop-color:#F59F1F"/>
</linearGradient>
<polygon fill="url(#SVGID_8_)" points="-81.1,-350.8 -59.9,-416.7 9.2,-416.9 30.8,-351.2 -25,-310.3 "/>
<linearGradient id="SVGID_9_" gradientUnits="userSpaceOnUse" x1="359.6568" y1="-378.1085" x2="621.6567" y2="-378.1085">
	<stop  offset="0" style="stop-color:#F59F1F"/>
	<stop  offset="1" style="stop-color:#7F3F98"/>
</linearGradient>
<polygon fill="url(#SVGID_9_)" points="395.7,-227.6 439.7,-323.8 359.7,-388.3 490.7,-507 379.7,-528.7 578.7,-528.7 621.7,-528.7 
	433.7,-407.2 507.3,-374.2 "/>
<g>
	<g>
		<path fill="#964E66" d="M137.4,41.4c-7.1,10.5-13.7,20.5-26.1,27.6c-2.9,1.7-6.1,3.4-9.2,4.7l-80.7-3.9c-0.6,0-1.6,0.1-3,0.3
			c-0.9-0.2-1.8-0.3-2.8-0.4C7.1,69.8,0.1,78.4,0,89c-0.1,10.7,6.9,19.3,15.5,19.4c1,0,1.9-0.1,2.8-0.3c1.3,0.2,2.4,0.3,3,0.4
			l81.5-3.1c5.1,1.6,11.6,6.7,14.7,8.9c8.5,5.9,14.1,14.3,19.8,22.6V41.4z"/>
	</g>
	<g>
		<path fill="#E16A5E" d="M211.8,0c-22.1-0.1-46.3,8.2-61.7,24.5v128.6c1.2,1.2,2.4,2.3,3.8,3.4c16.1,13.2,36.2,20.8,57.1,21
			c48.9,0.3,89-39.3,89.3-88.3C300.6,40.2,260.7,0.3,211.8,0z"/>
	</g>
</g>
<g>
	<path fill="#F59F1F" d="M213.4,16.4c-18-0.1-37.8,6.7-50.3,20v104.9c1,1,2,1.9,3.1,2.8c13.2,10.7,29.5,17,46.6,17.1
		c39.9,0.2,72.6-32,72.8-72C285.8,49.2,253.3,16.6,213.4,16.4z"/>
</g>
<g>
	<g>
		<circle fill="#E0D8D0" cx="278.5" cy="33.4" r="28.5"/>
	</g>
	<ellipse fill="#FAF5EF" cx="268.5" cy="25.3" rx="10.5" ry="9.9"/>
</g>
<rect x="659.5" y="457.4" fill="#F7F5E8" width="186" height="86.8"/>
<rect x="659.5" y="343.1" fill="#EDA23A" width="186" height="86.8"/>
<rect x="659.5" y="228.7" fill="#DC6975" width="186" height="86.8"/>
<rect x="659.5" y="114.4" fill="#964E66" width="186" height="86.8"/>
<rect x="659.5" y="0" fill="#4C3155" width="186" height="86.8"/>
</svg>
