<?xml version="1.0" encoding="utf-8"?>
<!-- Generator: Adobe Illustrator 18.0.0, SVG Export Plug-In . SVG Version: 6.00 Build 0)  -->
<!DOCTYPE svg PUBLIC "-//W3C//DTD SVG 1.1//EN" "http://www.w3.org/Graphics/SVG/1.1/DTD/svg11.dtd">
<svg version="1.1" id="Layer_1" xmlns="http://www.w3.org/2000/svg" xmlns:xlink="http://www.w3.org/1999/xlink" x="0px" y="0px"
	 viewBox="46.2 0 513.1 841.2" enable-background="new 46.2 0 513.1 841.2" xml:space="preserve">
<g>
	<g>
		<g>
			<path fill="#F6F5E8" d="M319.1,7.3c-135-11.5-254,89-265.8,223.7c-5.6,64,13.8,136.4,60.1,182.2c39,38.5,83.1,58.4,107.5,110.3
				c3.9,8.4,7.9,17.4,10.9,26.4l-28.9,221.5c-0.3,1.7,0,4.5,0.3,8.1c-0.8,2.5-1.4,5.1-1.7,7.6c-2,23.6,19.9,44.9,49.4,47.4
				s54.7-14.6,57-38.2c0.3-2.8,0-5.3-0.3-7.9c0.8-3.6,1.4-6.7,1.7-8.1l9.8-225.1c5.6-13.5,21.1-30.3,27.8-38.5
				c33.7-40.7,88.4-53.1,124.6-90.7c39.9-41.5,65.7-95.2,70.5-152.7C554.1,138.7,454.1,19.1,319.1,7.3z"/>
			<g>
				<path fill="#4B3055" d="M321.1,0.8C195.3-9.3,80.2,76.1,52.4,199c-14.9,65.4-2.5,137.6,34.8,193.4c19.7,29.5,49.4,50,76.4,72.1
					c12.6,10.4,24.4,21.6,34.5,34.2c6.2,7.6,10.9,15.7,15.4,24.1c2.2,4.2,3.9,8.4,5.9,12.6c1.4,2.8,6.7,12.1,6.5,14.9
					c-9,68.8-18,137.6-26.9,206.3c-1.4,11.2-3.1,22.7-3.4,34.2c-1.1,28.9,28.4,46.9,53.6,50c26.7,3.1,54.5-11.2,63.4-37.3
					c3.6-10.9,2.8-24.7,3.4-36.5c3.1-70.7,6.2-141.8,9.3-212.5c0.3-7.6,14.6-21.1,19.9-27.2c11.8-13.8,24.1-25.5,39.3-35.9
					c28.1-19.1,60.4-32,85.3-55.6c51.7-49.1,80.8-119.9,79.4-190.9C547.1,118.7,446,12.6,321.1,0.8c-7.3-0.8-11.8,12.6-3.9,13.2
					C453.6,26.9,553,151.6,534.7,287.5c-5.3,39.9-22.5,77.8-46.3,110c-22.7,30.6-51.7,49.4-84.2,67.9
					c-29.5,16.8-52.8,35.9-74.1,62.3c-9.8,12.1-16.6,22.5-17.1,37.3c-3.1,71.3-6.2,142.6-9.3,214.2c-0.3,8.1-0.8,19.7-3.9,26.9
					c-8.1,18.5-32.6,23.3-50.5,21.1c-16.8-2-32.6-12.4-39.3-27.8c-3.6-8.4-1.4-21.6-0.3-30.6c4.2-32.6,8.4-65.4,12.9-98
					c5.1-37.9,9.8-75.5,14.9-113.4c2.2-18-8.1-34.5-16.6-50c-16.6-29.5-43.8-50.5-69.9-71.3c-29.2-23.6-53.6-48.6-69.9-82.8
					C64.3,319.1,57.5,280.6,58.6,243c1.7-66.8,33.7-130,83.9-173.2C190.5,28.6,254.3,9,317.2,14C324.4,14.6,328.9,1.4,321.1,0.8z"/>
			</g>
		</g>
		<g opacity="0.1">
			<path fill="#827560" d="M309.3,780.1l14-324.2c0.6-7.3-5.1-13.5-12.9-14l-50.2-4.5c-7.9-0.6-14.6,4.2-15.2,11.5l-42.1,322.3
				c-0.3,1.7,0,4.5,0.3,8.1c-0.8,2.5-1.4,5.1-1.7,7.6c-2,23.6,19.9,44.9,49.4,47.4s54.7-14.6,57-38.2c0.3-2.8,0-5.3-0.3-7.9
				C308.4,784.9,309,781.8,309.3,780.1z"/>
		</g>
		<g>
			<path fill="#ECA13A" d="M158.3,409l247.9,21.6c58.1-34.2,99.4-92.1,105.3-161.7c9.8-114.3-78-216.2-196.5-226.3
				s-222.4,74.7-232.5,189C76.6,301.2,107.2,365.2,158.3,409z"/>
			<g>
				<path fill="#ECA13A" d="M156.3,415.8C226.2,422,296.1,427.9,366,434c11.8,1.1,23.9,2,35.7,3.1c4.5,0.3,6.5-0.6,10.7-3.1
					c14.6-8.7,27.8-19.4,40.1-31.2c47.4-44.9,70.7-110,64.6-174.9C505,98.5,372.5,14,248.9,39.9C122,66.5,44,201.6,89.2,324
					c12.9,35.1,36.2,65.7,64.3,90.1c5.9,5.3,14.6-5.6,9.3-10.4c-56.7-49.4-86.5-123-70.5-197.6C106,141.8,153.8,89.6,213.6,64.3
					c127.4-53.9,279,34,292,172.4c6.4,67-26.2,131.3-78.4,172.3c-5.3,4.2-10.9,8.1-16.8,11.8c-4.5,2.8-1.7,3.1-3.6,3.1
					c-3.4-0.3-6.7-0.6-10.1-0.8c-14.3-1.1-28.4-2.5-42.7-3.6c-64.8-5.6-129.4-11.2-194.3-16.8C153.2,401.7,148.7,414.9,156.3,415.8z
					"/>
			</g>
		</g>
		<g>
			<path fill="#ECA13A" d="M280.4,788c-0.6,7.9-7.6,14-15.2,13.5l-22.5-2c-7.9-0.6-13.5-8.1-12.6-16l31.4-264.7
				c0.6-7.9,7.6-13.2,15.2-12.4l5.6,0.6c7.9,0.6,13.5,7,12.9,14.9L280.4,788z"/>
			<g>
				<path fill="#28353D" d="M274.8,787.1c-2.8,12.4-21.9,6.5-30,5.9c-10.9-0.8-8.7-9.5-8.1-15.2c1.4-12.9,3.1-25.8,4.5-38.7
					c5.1-43.5,10.4-87,15.4-130.5c3.6-29.5,7-59,10.7-88.7c1.1-10.1,22.2-7.6,21.6,3.1c0,2.2-0.3,4.8-0.3,7
					c-0.8,13.8-1.4,27.5-2.2,41.5c-3.9,72.4-8.1,144.9-12.1,217.6c-0.6,9.3,11.5,6.2,12.1-1.4c3.9-69.3,7.6-139,11.5-208.3
					c0.8-15.4,1.7-30.9,2.5-46c0.6-10.4,2.2-20.5-6.7-28.4c-14-12.4-36.2-0.8-38.5,16c-1.1,9.3-2.2,18.5-3.4,27.5
					c-7.3,62-14.9,123.8-22.2,185.8c-2,16.8-3.9,33.4-5.9,50.2c-2,16.3,12.1,21.9,25.3,23c16.3,1.4,32.6,2,36.8-18
					C288.2,780.1,276.4,779,274.8,787.1z"/>
			</g>
		</g>
		<g opacity="0.1" enable-background="new    ">
			<g>
				<g>
					<defs>
						<path id="SVGID_1_" d="M315.7,51.1c-112.9-9.8-212.5,72.4-222.1,181.3C87.8,299,117,359,165.8,402.6l236.7,20.5
							c55.6-34.5,94.9-88.7,100.5-155.2C512.5,158.9,428.6,60.9,315.7,51.1z"/>
					</defs>
					<clipPath id="SVGID_2_">
						<use xlink:href="#SVGID_1_"  overflow="visible"/>
					</clipPath>
					<g clip-path="url(#SVGID_2_)">
						<g>
							<circle fill="#010101" cx="-49.2" cy="37.6" r="10.9"/>
							<circle fill="#010101" cx="-52.3" cy="73.5" r="10.9"/>
							<circle fill="#010101" cx="-55.4" cy="109.5" r="10.9"/>
							<circle fill="#010101" cx="-58.5" cy="145.7" r="10.9"/>
							<circle fill="#010101" cx="-61.5" cy="181.6" r="10.9"/>
							<circle fill="#010101" cx="-64.6" cy="217.6" r="10.9"/>
							<circle fill="#010101" cx="-68" cy="253.5" r="10.9"/>
							<circle fill="#010101" cx="-71.1" cy="289.4" r="10.9"/>
							<circle fill="#010101" cx="-74.2" cy="325.4" r="10.9"/>
							<circle fill="#010101" cx="-77.3" cy="361.6" r="10.9"/>
							<circle fill="#010101" cx="-80.4" cy="397.5" r="10.9"/>
							<circle fill="#010101" cx="-83.4" cy="433.4" r="10.9"/>
							<circle fill="#010101" cx="-86.8" cy="469.4" r="10.9"/>
							<circle fill="#010101" cx="-89.9" cy="505.3" r="10.9"/>
							<circle fill="#010101" cx="-93" cy="541.5" r="10.9"/>
							<circle fill="#010101" cx="-96.1" cy="577.4" r="10.9"/>
							<circle fill="#010101" cx="-99.2" cy="613.4" r="10.9"/>
							<circle fill="#010101" cx="-102.3" cy="649.3" r="10.9"/>
							<circle fill="#010101" cx="-105.3" cy="685.2" r="10.9"/>
							<circle fill="#010101" cx="-108.7" cy="721.2" r="10.9"/>
						</g>
						<g>
							<circle fill="#010101" cx="683.5" cy="101.3" r="10.9"/>
							<circle fill="#010101" cx="680.4" cy="137.3" r="10.9"/>
							<circle fill="#010101" cx="677.3" cy="173.5" r="10.9"/>
							<circle fill="#010101" cx="674.2" cy="209.4" r="10.9"/>
							<circle fill="#010101" cx="670.9" cy="245.4" r="10.9"/>
							<circle fill="#010101" cx="667.8" cy="281.3" r="10.9"/>
							<circle fill="#010101" cx="664.7" cy="317.2" r="10.9"/>
							<circle fill="#010101" cx="661.6" cy="353.2" r="10.9"/>
							<circle fill="#010101" cx="658.5" cy="389.4" r="10.9"/>
							<circle fill="#010101" cx="655.4" cy="425.3" r="10.9"/>
							<circle fill="#010101" cx="652.1" cy="461.2" r="10.9"/>
							<circle fill="#010101" cx="649" cy="497.2" r="10.9"/>
							<circle fill="#010101" cx="645.9" cy="533.1" r="10.9"/>
							<circle fill="#010101" cx="642.8" cy="569.3" r="10.9"/>
							<circle fill="#010101" cx="639.7" cy="605.2" r="10.9"/>
							<circle fill="#010101" cx="636.6" cy="641.2" r="10.9"/>
							<circle fill="#010101" cx="633.2" cy="677.1" r="10.9"/>
							<circle fill="#010101" cx="630.2" cy="713" r="10.9"/>
							<circle fill="#010101" cx="627.1" cy="749" r="10.9"/>
							<circle fill="#010101" cx="624" cy="785.2" r="10.9"/>
						</g>
						<g>
							<circle fill="#010101" cx="631.3" cy="96.8" r="10.9"/>
							<circle fill="#010101" cx="627.9" cy="132.8" r="10.9"/>
							<circle fill="#010101" cx="624.8" cy="168.7" r="10.9"/>
							<circle fill="#010101" cx="621.7" cy="204.9" r="10.9"/>
							<circle fill="#010101" cx="618.6" cy="240.9" r="10.9"/>
							<circle fill="#010101" cx="615.6" cy="276.8" r="10.9"/>
							<circle fill="#010101" cx="612.5" cy="312.7" r="10.9"/>
							<circle fill="#010101" cx="609.1" cy="348.7" r="10.9"/>
							<circle fill="#010101" cx="606" cy="384.6" r="10.9"/>
							<circle fill="#010101" cx="602.9" cy="420.8" r="10.9"/>
							<circle fill="#010101" cx="599.8" cy="456.7" r="10.9"/>
							<circle fill="#010101" cx="596.8" cy="492.7" r="10.9"/>
							<circle fill="#010101" cx="593.7" cy="528.6" r="10.9"/>
							<circle fill="#010101" cx="590.6" cy="564.5" r="10.9"/>
							<circle fill="#010101" cx="587.2" cy="600.5" r="10.9"/>
							<circle fill="#010101" cx="584.1" cy="636.7" r="10.9"/>
							<circle fill="#010101" cx="581" cy="672.6" r="10.9"/>
							<circle fill="#010101" cx="577.9" cy="708.5" r="10.9"/>
							<circle fill="#010101" cx="574.9" cy="744.5" r="10.9"/>
							<circle fill="#010101" cx="571.8" cy="780.4" r="10.9"/>
						</g>
						<g>
							<circle fill="#010101" cx="578.8" cy="92.4" r="10.9"/>
							<circle fill="#010101" cx="575.7" cy="128.3" r="10.9"/>
							<circle fill="#010101" cx="572.6" cy="164.2" r="10.9"/>
							<circle fill="#010101" cx="569.5" cy="200.2" r="10.9"/>
							<circle fill="#010101" cx="566.4" cy="236.1" r="10.9"/>
							<circle fill="#010101" cx="563.1" cy="272.3" r="10.9"/>
							<circle fill="#010101" cx="560" cy="308.2" r="10.9"/>
							<circle fill="#010101" cx="556.9" cy="344.2" r="10.9"/>
							<circle fill="#010101" cx="553.8" cy="380.1" r="10.9"/>
							<circle fill="#010101" cx="550.7" cy="416" r="10.9"/>
							<circle fill="#010101" cx="547.6" cy="452.2" r="10.9"/>
							<circle fill="#010101" cx="544.3" cy="488.2" r="10.9"/>
							<circle fill="#010101" cx="541.2" cy="524.1" r="10.9"/>
							<circle fill="#010101" cx="538.1" cy="560" r="10.9"/>
							<circle fill="#010101" cx="535" cy="596" r="10.9"/>
							<circle fill="#010101" cx="531.9" cy="631.9" r="10.9"/>
							<circle fill="#010101" cx="528.8" cy="668.1" r="10.9"/>
							<circle fill="#010101" cx="525.4" cy="704.1" r="10.9"/>
							<circle fill="#010101" cx="522.4" cy="740" r="10.9"/>
							<circle fill="#010101" cx="519.3" cy="775.9" r="10.9"/>
						</g>
						<g>
							<circle fill="#010101" cx="526.6" cy="87.9" r="10.9"/>
							<circle fill="#010101" cx="523.5" cy="123.8" r="10.9"/>
							<circle fill="#010101" cx="520.1" cy="159.7" r="10.9"/>
							<circle fill="#010101" cx="517" cy="195.7" r="10.9"/>
							<circle fill="#010101" cx="513.9" cy="231.6" r="10.9"/>
							<circle fill="#010101" cx="510.8" cy="267.5" r="10.9"/>
							<circle fill="#010101" cx="507.8" cy="303.7" r="10.9"/>
							<circle fill="#010101" cx="504.7" cy="339.7" r="10.9"/>
							<circle fill="#010101" cx="501.6" cy="375.6" r="10.9"/>
							<circle fill="#010101" cx="498.2" cy="411.5" r="10.9"/>
							<circle fill="#010101" cx="495.1" cy="447.5" r="10.9"/>
							<circle fill="#010101" cx="492" cy="483.4" r="10.9"/>
							<circle fill="#010101" cx="489" cy="519.6" r="10.9"/>
							<circle fill="#010101" cx="485.9" cy="555.6" r="10.9"/>
							<circle fill="#010101" cx="482.8" cy="591.5" r="10.9"/>
							<circle fill="#010101" cx="479.4" cy="627.4" r="10.9"/>
							<circle fill="#010101" cx="476.3" cy="663.3" r="10.9"/>
							<circle fill="#010101" cx="473.2" cy="699.6" r="10.9"/>
							<circle fill="#010101" cx="470.1" cy="735.5" r="10.9"/>
							<circle fill="#010101" cx="467.1" cy="771.4" r="10.9"/>
						</g>
						<g>
							<circle fill="#010101" cx="474.1" cy="83.1" r="10.9"/>
							<circle fill="#010101" cx="471" cy="119" r="10.9"/>
							<circle fill="#010101" cx="467.9" cy="155.2" r="10.9"/>
							<circle fill="#010101" cx="464.8" cy="191.2" r="10.9"/>
							<circle fill="#010101" cx="461.7" cy="227.1" r="10.9"/>
							<circle fill="#010101" cx="458.6" cy="263" r="10.9"/>
							<circle fill="#010101" cx="455.3" cy="299" r="10.9"/>
							<circle fill="#010101" cx="452.2" cy="335.2" r="10.9"/>
							<circle fill="#010101" cx="449.1" cy="371.1" r="10.9"/>
							<circle fill="#010101" cx="446" cy="407" r="10.9"/>
							<circle fill="#010101" cx="442.9" cy="443" r="10.9"/>
							<circle fill="#010101" cx="439.8" cy="478.9" r="10.9"/>
							<circle fill="#010101" cx="436.5" cy="514.8" r="10.9"/>
							<circle fill="#010101" cx="433.4" cy="551.1" r="10.9"/>
							<circle fill="#010101" cx="430.3" cy="587" r="10.9"/>
							<circle fill="#010101" cx="427.2" cy="622.9" r="10.9"/>
							<circle fill="#010101" cx="424.1" cy="658.9" r="10.9"/>
							<circle fill="#010101" cx="421" cy="694.8" r="10.9"/>
							<circle fill="#010101" cx="417.9" cy="731" r="10.9"/>
							<circle fill="#010101" cx="414.6" cy="766.9" r="10.9"/>
						</g>
						<g>
							<circle fill="#010101" cx="421.9" cy="78.6" r="10.9"/>
							<circle fill="#010101" cx="418.8" cy="114.5" r="10.9"/>
							<circle fill="#010101" cx="415.7" cy="150.5" r="10.9"/>
							<circle fill="#010101" cx="412.6" cy="186.7" r="10.9"/>
							<circle fill="#010101" cx="409.2" cy="222.6" r="10.9"/>
							<circle fill="#010101" cx="406.1" cy="258.5" r="10.9"/>
							<circle fill="#010101" cx="403.1" cy="294.5" r="10.9"/>
							<circle fill="#010101" cx="400" cy="330.4" r="10.9"/>
							<circle fill="#010101" cx="396.9" cy="366.6" r="10.9"/>
							<circle fill="#010101" cx="393.8" cy="402.6" r="10.9"/>
							<circle fill="#010101" cx="390.4" cy="438.5" r="10.9"/>
							<circle fill="#010101" cx="387.3" cy="474.4" r="10.9"/>
							<circle fill="#010101" cx="384.2" cy="510.4" r="10.9"/>
							<circle fill="#010101" cx="381.2" cy="546.3" r="10.9"/>
							<circle fill="#010101" cx="378.1" cy="582.5" r="10.9"/>
							<circle fill="#010101" cx="375" cy="618.4" r="10.9"/>
							<circle fill="#010101" cx="371.6" cy="654.4" r="10.9"/>
							<circle fill="#010101" cx="368.5" cy="690.3" r="10.9"/>
							<circle fill="#010101" cx="365.4" cy="726.2" r="10.9"/>
							<circle fill="#010101" cx="362.3" cy="762.2" r="10.9"/>
						</g>
						<g>
							<circle fill="#010101" cx="369.6" cy="74.1" r="10.9"/>
							<circle fill="#010101" cx="366.3" cy="110" r="10.9"/>
							<circle fill="#010101" cx="363.2" cy="146" r="10.9"/>
							<circle fill="#010101" cx="360.1" cy="181.9" r="10.9"/>
							<circle fill="#010101" cx="357" cy="218.1" r="10.9"/>
							<circle fill="#010101" cx="353.9" cy="254.1" r="10.9"/>
							<circle fill="#010101" cx="350.8" cy="290" r="10.9"/>
							<circle fill="#010101" cx="347.5" cy="325.9" r="10.9"/>
							<circle fill="#010101" cx="344.4" cy="361.9" r="10.9"/>
							<circle fill="#010101" cx="341.3" cy="397.8" r="10.9"/>
							<circle fill="#010101" cx="338.2" cy="434" r="10.9"/>
							<circle fill="#010101" cx="335.1" cy="469.9" r="10.9"/>
							<circle fill="#010101" cx="332" cy="505.9" r="10.9"/>
							<circle fill="#010101" cx="328.9" cy="541.8" r="10.9"/>
							<circle fill="#010101" cx="325.6" cy="577.7" r="10.9"/>
							<circle fill="#010101" cx="322.5" cy="613.9" r="10.9"/>
							<circle fill="#010101" cx="319.4" cy="649.9" r="10.9"/>
							<circle fill="#010101" cx="316.3" cy="685.8" r="10.9"/>
							<circle fill="#010101" cx="313.2" cy="721.7" r="10.9"/>
							<circle fill="#010101" cx="310.1" cy="757.7" r="10.9"/>
						</g>
						<g>
							<circle fill="#010101" cx="317.2" cy="69.6" r="10.9"/>
							<circle fill="#010101" cx="314.1" cy="105.6" r="10.9"/>
							<circle fill="#010101" cx="311" cy="141.5" r="10.9"/>
							<circle fill="#010101" cx="307.9" cy="177.4" r="10.9"/>
							<circle fill="#010101" cx="304.8" cy="213.3" r="10.9"/>
							<circle fill="#010101" cx="301.4" cy="249.6" r="10.9"/>
							<circle fill="#010101" cx="298.3" cy="285.5" r="10.9"/>
							<circle fill="#010101" cx="295.3" cy="321.4" r="10.9"/>
							<circle fill="#010101" cx="292.2" cy="357.4" r="10.9"/>
							<circle fill="#010101" cx="289.1" cy="393.3" r="10.9"/>
							<circle fill="#010101" cx="286" cy="429.2" r="10.9"/>
							<circle fill="#010101" cx="282.6" cy="465.4" r="10.9"/>
							<circle fill="#010101" cx="279.5" cy="501.4" r="10.9"/>
							<circle fill="#010101" cx="276.4" cy="537.3" r="10.9"/>
							<circle fill="#010101" cx="273.4" cy="573.2" r="10.9"/>
							<circle fill="#010101" cx="270.3" cy="609.2" r="10.9"/>
							<circle fill="#010101" cx="267.2" cy="645.1" r="10.9"/>
							<circle fill="#010101" cx="263.8" cy="681.3" r="10.9"/>
							<circle fill="#010101" cx="260.7" cy="717.2" r="10.9"/>
							<circle fill="#010101" cx="257.6" cy="753.2" r="10.9"/>
						</g>
						<g>
							<circle fill="#010101" cx="264.9" cy="64.8" r="10.9"/>
							<circle fill="#010101" cx="261.8" cy="101.1" r="10.9"/>
							<circle fill="#010101" cx="258.5" cy="137" r="10.9"/>
							<circle fill="#010101" cx="255.4" cy="172.9" r="10.9"/>
							<circle fill="#010101" cx="252.3" cy="208.9" r="10.9"/>
							<circle fill="#010101" cx="249.2" cy="244.8" r="10.9"/>
							<circle fill="#010101" cx="246.1" cy="280.7" r="10.9"/>
							<circle fill="#010101" cx="243" cy="316.9" r="10.9"/>
							<circle fill="#010101" cx="240" cy="352.9" r="10.9"/>
							<circle fill="#010101" cx="236.6" cy="388.8" r="10.9"/>
							<circle fill="#010101" cx="233.5" cy="424.7" r="10.9"/>
							<circle fill="#010101" cx="230.4" cy="460.7" r="10.9"/>
							<circle fill="#010101" cx="227.3" cy="496.9" r="10.9"/>
							<circle fill="#010101" cx="224.2" cy="532.8" r="10.9"/>
							<circle fill="#010101" cx="221.1" cy="568.7" r="10.9"/>
							<circle fill="#010101" cx="217.8" cy="604.7" r="10.9"/>
							<circle fill="#010101" cx="214.7" cy="640.6" r="10.9"/>
							<circle fill="#010101" cx="211.6" cy="676.5" r="10.9"/>
							<circle fill="#010101" cx="208.5" cy="712.8" r="10.9"/>
							<circle fill="#010101" cx="205.4" cy="748.7" r="10.9"/>
						</g>
						<g>
							<circle fill="#010101" cx="212.4" cy="60.4" r="10.9"/>
							<circle fill="#010101" cx="209.4" cy="96.3" r="10.9"/>
							<circle fill="#010101" cx="206.3" cy="132.5" r="10.9"/>
							<circle fill="#010101" cx="203.2" cy="168.4" r="10.9"/>
							<circle fill="#010101" cx="200.1" cy="204.4" r="10.9"/>
							<circle fill="#010101" cx="197" cy="240.3" r="10.9"/>
							<circle fill="#010101" cx="193.6" cy="276.2" r="10.9"/>
							<circle fill="#010101" cx="190.5" cy="312.2" r="10.9"/>
							<circle fill="#010101" cx="187.5" cy="348.4" r="10.9"/>
							<circle fill="#010101" cx="184.4" cy="384.3" r="10.9"/>
							<circle fill="#010101" cx="181.3" cy="420.2" r="10.9"/>
							<circle fill="#010101" cx="178.2" cy="456.2" r="10.9"/>
							<circle fill="#010101" cx="174.8" cy="492.1" r="10.9"/>
							<circle fill="#010101" cx="171.7" cy="528" r="10.9"/>
							<circle fill="#010101" cx="168.6" cy="564.3" r="10.9"/>
							<circle fill="#010101" cx="165.6" cy="600.2" r="10.9"/>
							<circle fill="#010101" cx="162.5" cy="636.1" r="10.9"/>
							<circle fill="#010101" cx="159.4" cy="672.1" r="10.9"/>
							<circle fill="#010101" cx="156.3" cy="708" r="10.9"/>
							<circle fill="#010101" cx="152.9" cy="744.2" r="10.9"/>
						</g>
						<g>
							<circle fill="#010101" cx="160.2" cy="55.9" r="10.9"/>
							<circle fill="#010101" cx="157.1" cy="91.8" r="10.9"/>
							<circle fill="#010101" cx="154" cy="127.7" r="10.9"/>
							<circle fill="#010101" cx="151" cy="163.7" r="10.9"/>
							<circle fill="#010101" cx="147.6" cy="199.9" r="10.9"/>
							<circle fill="#010101" cx="144.5" cy="235.8" r="10.9"/>
							<circle fill="#010101" cx="141.4" cy="271.7" r="10.9"/>
							<circle fill="#010101" cx="138.3" cy="307.7" r="10.9"/>
							<circle fill="#010101" cx="135.2" cy="343.6" r="10.9"/>
							<circle fill="#010101" cx="132.2" cy="379.8" r="10.9"/>
							<circle fill="#010101" cx="128.8" cy="415.8" r="10.9"/>
							<circle fill="#010101" cx="125.7" cy="451.7" r="10.9"/>
							<circle fill="#010101" cx="122.6" cy="487.6" r="10.9"/>
							<circle fill="#010101" cx="119.5" cy="523.5" r="10.9"/>
							<circle fill="#010101" cx="116.4" cy="559.5" r="10.9"/>
							<circle fill="#010101" cx="113.3" cy="595.7" r="10.9"/>
							<circle fill="#010101" cx="110" cy="631.6" r="10.9"/>
							<circle fill="#010101" cx="106.9" cy="667.6" r="10.9"/>
							<circle fill="#010101" cx="103.8" cy="703.5" r="10.9"/>
							<circle fill="#010101" cx="100.7" cy="739.4" r="10.9"/>
						</g>
						<g>
							<circle fill="#010101" cx="108" cy="51.4" r="10.9"/>
							<circle fill="#010101" cx="104.6" cy="87.3" r="10.9"/>
							<circle fill="#010101" cx="101.6" cy="123.2" r="10.9"/>
							<circle fill="#010101" cx="98.5" cy="159.2" r="10.9"/>
							<circle fill="#010101" cx="95.4" cy="195.1" r="10.9"/>
							<circle fill="#010101" cx="92.3" cy="231.3" r="10.9"/>
							<circle fill="#010101" cx="89.2" cy="267.2" r="10.9"/>
							<circle fill="#010101" cx="85.8" cy="303.2" r="10.9"/>
							<circle fill="#010101" cx="82.7" cy="339.1" r="10.9"/>
							<circle fill="#010101" cx="79.7" cy="375" r="10.9"/>
							<circle fill="#010101" cx="76.6" cy="411" r="10.9"/>
							<circle fill="#010101" cx="73.5" cy="447.2" r="10.9"/>
							<circle fill="#010101" cx="70.4" cy="483.1" r="10.9"/>
							<circle fill="#010101" cx="67.3" cy="519.1" r="10.9"/>
							<circle fill="#010101" cx="63.9" cy="555" r="10.9"/>
							<circle fill="#010101" cx="60.8" cy="590.9" r="10.9"/>
							<circle fill="#010101" cx="57.8" cy="627.1" r="10.9"/>
							<circle fill="#010101" cx="54.7" cy="663.1" r="10.9"/>
							<circle fill="#010101" cx="51.6" cy="699" r="10.9"/>
							<circle fill="#010101" cx="48.5" cy="734.9" r="10.9"/>
						</g>
						<g>
							<circle fill="#010101" cx="55.5" cy="46.6" r="10.9"/>
							<circle fill="#010101" cx="52.4" cy="82.8" r="10.9"/>
							<circle fill="#010101" cx="49.3" cy="118.7" r="10.9"/>
							<circle fill="#010101" cx="46.3" cy="154.7" r="10.9"/>
							<circle fill="#010101" cx="43.2" cy="190.6" r="10.9"/>
							<circle fill="#010101" cx="39.8" cy="226.5" r="10.9"/>
							<circle fill="#010101" cx="36.7" cy="262.8" r="10.9"/>
							<circle fill="#010101" cx="33.6" cy="298.7" r="10.9"/>
							<circle fill="#010101" cx="30.5" cy="334.6" r="10.9"/>
							<circle fill="#010101" cx="27.4" cy="370.6" r="10.9"/>
							<circle fill="#010101" cx="24.4" cy="406.5" r="10.9"/>
							<circle fill="#010101" cx="21" cy="442.4" r="10.9"/>
							<circle fill="#010101" cx="17.9" cy="478.6" r="10.9"/>
							<circle fill="#010101" cx="14.8" cy="514.6" r="10.9"/>
							<circle fill="#010101" cx="11.7" cy="550.5" r="10.9"/>
							<circle fill="#010101" cx="8.6" cy="586.4" r="10.9"/>
							<circle fill="#010101" cx="5.5" cy="622.4" r="10.9"/>
							<circle fill="#010101" cx="2.2" cy="658.3" r="10.9"/>
							<circle fill="#010101" cx="-0.9" cy="694.5" r="10.9"/>
							<circle fill="#010101" cx="-4" cy="730.4" r="10.9"/>
						</g>
						<g>
							<circle fill="#010101" cx="3.3" cy="42.1" r="10.9"/>
							<circle fill="#010101" cx="0.2" cy="78" r="10.9"/>
							<circle fill="#010101" cx="-3.2" cy="114.3" r="10.9"/>
							<circle fill="#010101" cx="-6.2" cy="150.2" r="10.9"/>
							<circle fill="#010101" cx="-9.3" cy="186.1" r="10.9"/>
							<circle fill="#010101" cx="-12.4" cy="222.1" r="10.9"/>
							<circle fill="#010101" cx="-15.5" cy="258" r="10.9"/>
							<circle fill="#010101" cx="-18.6" cy="293.9" r="10.9"/>
							<circle fill="#010101" cx="-21.7" cy="330.1" r="10.9"/>
							<circle fill="#010101" cx="-25.1" cy="366.1" r="10.9"/>
							<circle fill="#010101" cx="-28.1" cy="402" r="10.9"/>
							<circle fill="#010101" cx="-31.2" cy="437.9" r="10.9"/>
							<circle fill="#010101" cx="-34.3" cy="473.9" r="10.9"/>
							<circle fill="#010101" cx="-37.4" cy="510.1" r="10.9"/>
							<circle fill="#010101" cx="-40.5" cy="546" r="10.9"/>
							<circle fill="#010101" cx="-43.9" cy="581.9" r="10.9"/>
							<circle fill="#010101" cx="-46.9" cy="617.9" r="10.9"/>
							<circle fill="#010101" cx="-50" cy="653.8" r="10.9"/>
							<circle fill="#010101" cx="-53.1" cy="689.7" r="10.9"/>
							<circle fill="#010101" cx="-56.2" cy="726" r="10.9"/>
						</g>
						<g>
							<circle fill="#010101" cx="735.7" cy="105.8" r="10.9"/>
							<circle fill="#010101" cx="732.6" cy="142" r="10.9"/>
							<circle fill="#010101" cx="729.5" cy="178" r="10.9"/>
							<circle fill="#010101" cx="726.4" cy="213.9" r="10.9"/>
							<circle fill="#010101" cx="723.4" cy="249.8" r="10.9"/>
							<circle fill="#010101" cx="720.3" cy="285.8" r="10.9"/>
							<circle fill="#010101" cx="716.9" cy="322" r="10.9"/>
							<circle fill="#010101" cx="713.8" cy="357.9" r="10.9"/>
							<circle fill="#010101" cx="710.7" cy="393.9" r="10.9"/>
							<circle fill="#010101" cx="707.6" cy="429.8" r="10.9"/>
							<circle fill="#010101" cx="704.5" cy="465.7" r="10.9"/>
							<circle fill="#010101" cx="701.5" cy="501.7" r="10.9"/>
							<circle fill="#010101" cx="698.1" cy="537.9" r="10.9"/>
							<circle fill="#010101" cx="695" cy="573.8" r="10.9"/>
							<circle fill="#010101" cx="691.9" cy="609.7" r="10.9"/>
							<circle fill="#010101" cx="688.8" cy="645.7" r="10.9"/>
							<circle fill="#010101" cx="685.7" cy="681.6" r="10.9"/>
							<circle fill="#010101" cx="682.7" cy="717.5" r="10.9"/>
							<circle fill="#010101" cx="679.6" cy="753.7" r="10.9"/>
							<circle fill="#010101" cx="676.2" cy="789.7" r="10.9"/>
						</g>
					</g>
				</g>
			</g>
		</g>
		<g opacity="0.1" enable-background="new    ">
			<g>
				<g>
					<defs>
						<path id="SVGID_3_" d="M280.4,528l-5.6-0.6c-7.9-0.6-14.3,3.9-15.2,11.8l-31.4,265c-0.6,7.9,5.1,15.4,12.6,16.3l22.5,2
							c7.9,0.6,14.6-6.5,15.4-14l14.6-265.8C294.1,534.8,288.2,528.9,280.4,528z"/>
					</defs>
					<clipPath id="SVGID_4_">
						<use xlink:href="#SVGID_3_"  overflow="visible"/>
					</clipPath>
					<g clip-path="url(#SVGID_4_)">
						<g>
							<circle fill="#010101" cx="-66.9" cy="22.7" r="11.5"/>
							<circle fill="#010101" cx="-70" cy="60.6" r="11.5"/>
							<circle fill="#010101" cx="-73.3" cy="98.3" r="11.5"/>
							<circle fill="#010101" cx="-76.7" cy="136.2" r="11.5"/>
							<circle fill="#010101" cx="-79.8" cy="173.8" r="11.5"/>
							<circle fill="#010101" cx="-83.2" cy="211.4" r="11.5"/>
							<circle fill="#010101" cx="-86.5" cy="249.3" r="11.5"/>
							<circle fill="#010101" cx="-89.6" cy="286.9" r="11.5"/>
							<circle fill="#010101" cx="-93" cy="324.5" r="11.5"/>
							<circle fill="#010101" cx="-96.4" cy="362.4" r="11.5"/>
							<circle fill="#010101" cx="-99.4" cy="400" r="11.5"/>
							<circle fill="#010101" cx="-102.8" cy="437.6" r="11.5"/>
							<circle fill="#010101" cx="-106.2" cy="475.5" r="11.5"/>
							<circle fill="#010101" cx="-109.5" cy="513.2" r="11.5"/>
							<circle fill="#010101" cx="-112.6" cy="550.8" r="11.5"/>
							<circle fill="#010101" cx="-116" cy="588.7" r="11.5"/>
							<circle fill="#010101" cx="-119.4" cy="626.3" r="11.5"/>
							<circle fill="#010101" cx="-122.5" cy="663.9" r="11.5"/>
							<circle fill="#010101" cx="-125.8" cy="701.8" r="11.5"/>
							<circle fill="#010101" cx="-129.2" cy="739.4" r="11.5"/>
						</g>
						<g>
							<circle fill="#010101" cx="700.9" cy="89.8" r="11.5"/>
							<circle fill="#010101" cx="697.8" cy="127.4" r="11.5"/>
							<circle fill="#010101" cx="694.4" cy="165.1" r="11.5"/>
							<circle fill="#010101" cx="691.1" cy="203" r="11.5"/>
							<circle fill="#010101" cx="688" cy="240.6" r="11.5"/>
							<circle fill="#010101" cx="684.6" cy="278.2" r="11.5"/>
							<circle fill="#010101" cx="681.2" cy="316.1" r="11.5"/>
							<circle fill="#010101" cx="678.2" cy="353.7" r="11.5"/>
							<circle fill="#010101" cx="674.8" cy="391.3" r="11.5"/>
							<circle fill="#010101" cx="671.4" cy="429.2" r="11.5"/>
							<circle fill="#010101" cx="668.3" cy="466.8" r="11.5"/>
							<circle fill="#010101" cx="665" cy="504.5" r="11.5"/>
							<circle fill="#010101" cx="661.6" cy="542.4" r="11.5"/>
							<circle fill="#010101" cx="658.2" cy="580" r="11.5"/>
							<circle fill="#010101" cx="655.1" cy="617.6" r="11.5"/>
							<circle fill="#010101" cx="651.8" cy="655.5" r="11.5"/>
							<circle fill="#010101" cx="648.4" cy="693.1" r="11.5"/>
							<circle fill="#010101" cx="645.3" cy="730.7" r="11.5"/>
							<circle fill="#010101" cx="641.9" cy="768.6" r="11.5"/>
							<circle fill="#010101" cx="638.6" cy="806.2" r="11.5"/>
						</g>
						<g>
							<circle fill="#010101" cx="646.2" cy="85.1" r="11.5"/>
							<circle fill="#010101" cx="642.8" cy="122.7" r="11.5"/>
							<circle fill="#010101" cx="639.7" cy="160.3" r="11.5"/>
							<circle fill="#010101" cx="636.3" cy="198.2" r="11.5"/>
							<circle fill="#010101" cx="633" cy="235.8" r="11.5"/>
							<circle fill="#010101" cx="629.9" cy="273.4" r="11.5"/>
							<circle fill="#010101" cx="626.5" cy="311.3" r="11.5"/>
							<circle fill="#010101" cx="623.1" cy="348.9" r="11.5"/>
							<circle fill="#010101" cx="620.1" cy="386.6" r="11.5"/>
							<circle fill="#010101" cx="616.7" cy="424.5" r="11.5"/>
							<circle fill="#010101" cx="613.3" cy="462.1" r="11.5"/>
							<circle fill="#010101" cx="609.9" cy="499.7" r="11.5"/>
							<circle fill="#010101" cx="606.9" cy="537.6" r="11.5"/>
							<circle fill="#010101" cx="603.5" cy="575.2" r="11.5"/>
							<circle fill="#010101" cx="600.1" cy="612.8" r="11.5"/>
							<circle fill="#010101" cx="597" cy="650.7" r="11.5"/>
							<circle fill="#010101" cx="593.7" cy="688.3" r="11.5"/>
							<circle fill="#010101" cx="590.3" cy="726" r="11.5"/>
							<circle fill="#010101" cx="587.2" cy="763.8" r="11.5"/>
							<circle fill="#010101" cx="583.8" cy="801.5" r="11.5"/>
						</g>
						<g>
							<circle fill="#010101" cx="591.4" cy="80.3" r="11.5"/>
							<circle fill="#010101" cx="588" cy="117.9" r="11.5"/>
							<circle fill="#010101" cx="584.7" cy="155.5" r="11.5"/>
							<circle fill="#010101" cx="581.6" cy="193.4" r="11.5"/>
							<circle fill="#010101" cx="578.2" cy="231" r="11.5"/>
							<circle fill="#010101" cx="574.9" cy="268.7" r="11.5"/>
							<circle fill="#010101" cx="571.8" cy="306.6" r="11.5"/>
							<circle fill="#010101" cx="568.4" cy="344.2" r="11.5"/>
							<circle fill="#010101" cx="565" cy="381.8" r="11.5"/>
							<circle fill="#010101" cx="561.7" cy="419.7" r="11.5"/>
							<circle fill="#010101" cx="558.6" cy="457.3" r="11.5"/>
							<circle fill="#010101" cx="555.2" cy="494.9" r="11.5"/>
							<circle fill="#010101" cx="551.8" cy="532.8" r="11.5"/>
							<circle fill="#010101" cx="548.7" cy="570.4" r="11.5"/>
							<circle fill="#010101" cx="545.4" cy="608" r="11.5"/>
							<circle fill="#010101" cx="542" cy="645.9" r="11.5"/>
							<circle fill="#010101" cx="538.9" cy="683.6" r="11.5"/>
							<circle fill="#010101" cx="535.6" cy="721.2" r="11.5"/>
							<circle fill="#010101" cx="532.2" cy="759.1" r="11.5"/>
							<circle fill="#010101" cx="529.1" cy="796.7" r="11.5"/>
						</g>
						<g>
							<circle fill="#010101" cx="536.4" cy="75.5" r="11.5"/>
							<circle fill="#010101" cx="533.3" cy="113.1" r="11.5"/>
							<circle fill="#010101" cx="529.9" cy="150.7" r="11.5"/>
							<circle fill="#010101" cx="526.6" cy="188.6" r="11.5"/>
							<circle fill="#010101" cx="523.5" cy="226.3" r="11.5"/>
							<circle fill="#010101" cx="520.1" cy="263.9" r="11.5"/>
							<circle fill="#010101" cx="516.7" cy="301.8" r="11.5"/>
							<circle fill="#010101" cx="513.7" cy="339.4" r="11.5"/>
							<circle fill="#010101" cx="510.3" cy="377" r="11.5"/>
							<circle fill="#010101" cx="506.9" cy="414.9" r="11.5"/>
							<circle fill="#010101" cx="503.6" cy="452.5" r="11.5"/>
							<circle fill="#010101" cx="500.5" cy="490.1" r="11.5"/>
							<circle fill="#010101" cx="497.1" cy="528" r="11.5"/>
							<circle fill="#010101" cx="493.7" cy="565.7" r="11.5"/>
							<circle fill="#010101" cx="490.6" cy="603.3" r="11.5"/>
							<circle fill="#010101" cx="487.3" cy="641.2" r="11.5"/>
							<circle fill="#010101" cx="483.9" cy="678.8" r="11.5"/>
							<circle fill="#010101" cx="480.8" cy="716.4" r="11.5"/>
							<circle fill="#010101" cx="477.4" cy="754.3" r="11.5"/>
							<circle fill="#010101" cx="474.1" cy="791.9" r="11.5"/>
						</g>
						<g>
							<circle fill="#010101" cx="481.7" cy="70.7" r="11.5"/>
							<circle fill="#010101" cx="478.3" cy="108.4" r="11.5"/>
							<circle fill="#010101" cx="475.2" cy="146" r="11.5"/>
							<circle fill="#010101" cx="471.8" cy="183.9" r="11.5"/>
							<circle fill="#010101" cx="468.5" cy="221.5" r="11.5"/>
							<circle fill="#010101" cx="465.4" cy="259.1" r="11.5"/>
							<circle fill="#010101" cx="462" cy="297" r="11.5"/>
							<circle fill="#010101" cx="458.6" cy="334.6" r="11.5"/>
							<circle fill="#010101" cx="455.3" cy="372.2" r="11.5"/>
							<circle fill="#010101" cx="452.2" cy="410.1" r="11.5"/>
							<circle fill="#010101" cx="448.8" cy="447.8" r="11.5"/>
							<circle fill="#010101" cx="445.4" cy="485.4" r="11.5"/>
							<circle fill="#010101" cx="442.4" cy="523.3" r="11.5"/>
							<circle fill="#010101" cx="439" cy="560.9" r="11.5"/>
							<circle fill="#010101" cx="435.6" cy="598.5" r="11.5"/>
							<circle fill="#010101" cx="432.5" cy="636.4" r="11.5"/>
							<circle fill="#010101" cx="429.2" cy="674" r="11.5"/>
							<circle fill="#010101" cx="425.8" cy="711.6" r="11.5"/>
							<circle fill="#010101" cx="422.7" cy="749.5" r="11.5"/>
							<circle fill="#010101" cx="419.3" cy="787.1" r="11.5"/>
						</g>
						<g>
							<circle fill="#010101" cx="426.9" cy="66" r="11.5"/>
							<circle fill="#010101" cx="423.5" cy="103.6" r="11.5"/>
							<circle fill="#010101" cx="420.2" cy="141.2" r="11.5"/>
							<circle fill="#010101" cx="417.1" cy="179.1" r="11.5"/>
							<circle fill="#010101" cx="413.7" cy="216.7" r="11.5"/>
							<circle fill="#010101" cx="410.4" cy="254.3" r="11.5"/>
							<circle fill="#010101" cx="407.3" cy="292.2" r="11.5"/>
							<circle fill="#010101" cx="403.9" cy="329.9" r="11.5"/>
							<circle fill="#010101" cx="400.5" cy="367.5" r="11.5"/>
							<circle fill="#010101" cx="397.2" cy="405.4" r="11.5"/>
							<circle fill="#010101" cx="394.1" cy="443" r="11.5"/>
							<circle fill="#010101" cx="390.7" cy="480.6" r="11.5"/>
							<circle fill="#010101" cx="387.3" cy="518.5" r="11.5"/>
							<circle fill="#010101" cx="384.2" cy="556.1" r="11.5"/>
							<circle fill="#010101" cx="380.9" cy="593.7" r="11.5"/>
							<circle fill="#010101" cx="377.5" cy="631.6" r="11.5"/>
							<circle fill="#010101" cx="374.4" cy="669.2" r="11.5"/>
							<circle fill="#010101" cx="371" cy="706.9" r="11.5"/>
							<circle fill="#010101" cx="367.7" cy="744.8" r="11.5"/>
							<circle fill="#010101" cx="364.3" cy="782.4" r="11.5"/>
						</g>
						<g>
							<circle fill="#010101" cx="371.9" cy="61.2" r="11.5"/>
							<circle fill="#010101" cx="368.8" cy="98.8" r="11.5"/>
							<circle fill="#010101" cx="365.4" cy="136.4" r="11.5"/>
							<circle fill="#010101" cx="362.1" cy="174.3" r="11.5"/>
							<circle fill="#010101" cx="359" cy="211.9" r="11.5"/>
							<circle fill="#010101" cx="355.6" cy="249.6" r="11.5"/>
							<circle fill="#010101" cx="352.2" cy="287.5" r="11.5"/>
							<circle fill="#010101" cx="348.9" cy="325.1" r="11.5"/>
							<circle fill="#010101" cx="345.8" cy="362.7" r="11.5"/>
							<circle fill="#010101" cx="342.4" cy="400.6" r="11.5"/>
							<circle fill="#010101" cx="339" cy="438.2" r="11.5"/>
							<circle fill="#010101" cx="336" cy="475.8" r="11.5"/>
							<circle fill="#010101" cx="332.6" cy="513.7" r="11.5"/>
							<circle fill="#010101" cx="329.2" cy="551.3" r="11.5"/>
							<circle fill="#010101" cx="326.1" cy="589" r="11.5"/>
							<circle fill="#010101" cx="322.8" cy="626.9" r="11.5"/>
							<circle fill="#010101" cx="319.4" cy="664.5" r="11.5"/>
							<circle fill="#010101" cx="316" cy="702.1" r="11.5"/>
							<circle fill="#010101" cx="312.9" cy="740" r="11.5"/>
							<circle fill="#010101" cx="309.6" cy="777.6" r="11.5"/>
						</g>
						<g>
							<circle fill="#010101" cx="317.2" cy="56.4" r="11.5"/>
							<circle fill="#010101" cx="313.8" cy="94" r="11.5"/>
							<circle fill="#010101" cx="310.7" cy="131.7" r="11.5"/>
							<circle fill="#010101" cx="307.3" cy="169.6" r="11.5"/>
							<circle fill="#010101" cx="304" cy="207.2" r="11.5"/>
							<circle fill="#010101" cx="300.6" cy="244.8" r="11.5"/>
							<circle fill="#010101" cx="297.5" cy="282.7" r="11.5"/>
							<circle fill="#010101" cx="294.1" cy="320.3" r="11.5"/>
							<circle fill="#010101" cx="290.8" cy="357.9" r="11.5"/>
							<circle fill="#010101" cx="287.7" cy="395.8" r="11.5"/>
							<circle fill="#010101" cx="284.3" cy="433.4" r="11.5"/>
							<circle fill="#010101" cx="280.9" cy="471.1" r="11.5"/>
							<circle fill="#010101" cx="277.8" cy="509" r="11.5"/>
							<circle fill="#010101" cx="274.5" cy="546.6" r="11.5"/>
							<circle fill="#010101" cx="271.1" cy="584.2" r="11.5"/>
							<circle fill="#010101" cx="268" cy="622.1" r="11.5"/>
							<circle fill="#010101" cx="264.7" cy="659.7" r="11.5"/>
							<circle fill="#010101" cx="261.3" cy="697.3" r="11.5"/>
							<circle fill="#010101" cx="257.9" cy="735.2" r="11.5"/>
							<circle fill="#010101" cx="254.8" cy="772.8" r="11.5"/>
						</g>
						<g>
							<circle fill="#010101" cx="262.4" cy="51.7" r="11.5"/>
							<circle fill="#010101" cx="259" cy="89.3" r="11.5"/>
							<circle fill="#010101" cx="255.7" cy="126.9" r="11.5"/>
							<circle fill="#010101" cx="252.6" cy="164.8" r="11.5"/>
							<circle fill="#010101" cx="249.2" cy="202.4" r="11.5"/>
							<circle fill="#010101" cx="245.8" cy="240" r="11.5"/>
							<circle fill="#010101" cx="242.5" cy="277.9" r="11.5"/>
							<circle fill="#010101" cx="239.4" cy="315.5" r="11.5"/>
							<circle fill="#010101" cx="236" cy="353.2" r="11.5"/>
							<circle fill="#010101" cx="232.7" cy="391" r="11.5"/>
							<circle fill="#010101" cx="229.6" cy="428.7" r="11.5"/>
							<circle fill="#010101" cx="226.2" cy="466.3" r="11.5"/>
							<circle fill="#010101" cx="222.8" cy="504.2" r="11.5"/>
							<circle fill="#010101" cx="219.7" cy="541.8" r="11.5"/>
							<circle fill="#010101" cx="216.4" cy="579.4" r="11.5"/>
							<circle fill="#010101" cx="213" cy="617.3" r="11.5"/>
							<circle fill="#010101" cx="209.6" cy="654.9" r="11.5"/>
							<circle fill="#010101" cx="206.5" cy="692.5" r="11.5"/>
							<circle fill="#010101" cx="203.2" cy="730.4" r="11.5"/>
							<circle fill="#010101" cx="199.8" cy="768.1" r="11.5"/>
						</g>
						<g>
							<circle fill="#010101" cx="207.4" cy="46.9" r="11.5"/>
							<circle fill="#010101" cx="204.3" cy="84.5" r="11.5"/>
							<circle fill="#010101" cx="200.9" cy="122.1" r="11.5"/>
							<circle fill="#010101" cx="197.6" cy="160" r="11.5"/>
							<circle fill="#010101" cx="194.2" cy="197.6" r="11.5"/>
							<circle fill="#010101" cx="191.1" cy="235.2" r="11.5"/>
							<circle fill="#010101" cx="187.7" cy="273.1" r="11.5"/>
							<circle fill="#010101" cx="184.4" cy="310.8" r="11.5"/>
							<circle fill="#010101" cx="181.3" cy="348.4" r="11.5"/>
							<circle fill="#010101" cx="177.9" cy="386.3" r="11.5"/>
							<circle fill="#010101" cx="174.5" cy="423.9" r="11.5"/>
							<circle fill="#010101" cx="171.5" cy="461.5" r="11.5"/>
							<circle fill="#010101" cx="168.1" cy="499.4" r="11.5"/>
							<circle fill="#010101" cx="164.7" cy="537" r="11.5"/>
							<circle fill="#010101" cx="161.6" cy="574.6" r="11.5"/>
							<circle fill="#010101" cx="158.3" cy="612.5" r="11.5"/>
							<circle fill="#010101" cx="154.9" cy="650.2" r="11.5"/>
							<circle fill="#010101" cx="151.5" cy="687.8" r="11.5"/>
							<circle fill="#010101" cx="148.4" cy="725.7" r="11.5"/>
							<circle fill="#010101" cx="145.1" cy="763.3" r="11.5"/>
						</g>
						<g>
							<circle fill="#010101" cx="152.6" cy="42.1" r="11.5"/>
							<circle fill="#010101" cx="149.3" cy="79.7" r="11.5"/>
							<circle fill="#010101" cx="146.2" cy="117.3" r="11.5"/>
							<circle fill="#010101" cx="142.8" cy="155.2" r="11.5"/>
							<circle fill="#010101" cx="139.5" cy="192.9" r="11.5"/>
							<circle fill="#010101" cx="136.1" cy="230.5" r="11.5"/>
							<circle fill="#010101" cx="133" cy="268.4" r="11.5"/>
							<circle fill="#010101" cx="129.6" cy="306" r="11.5"/>
							<circle fill="#010101" cx="126.3" cy="343.6" r="11.5"/>
							<circle fill="#010101" cx="123.2" cy="381.5" r="11.5"/>
							<circle fill="#010101" cx="119.8" cy="419.1" r="11.5"/>
							<circle fill="#010101" cx="116.4" cy="456.7" r="11.5"/>
							<circle fill="#010101" cx="113.3" cy="494.6" r="11.5"/>
							<circle fill="#010101" cx="110" cy="532.3" r="11.5"/>
							<circle fill="#010101" cx="106.6" cy="569.9" r="11.5"/>
							<circle fill="#010101" cx="103.2" cy="607.8" r="11.5"/>
							<circle fill="#010101" cx="100.2" cy="645.4" r="11.5"/>
							<circle fill="#010101" cx="96.8" cy="683" r="11.5"/>
							<circle fill="#010101" cx="93.4" cy="720.9" r="11.5"/>
							<circle fill="#010101" cx="90.3" cy="758.5" r="11.5"/>
						</g>
						<g>
							<circle fill="#010101" cx="97.9" cy="37.3" r="11.5"/>
							<circle fill="#010101" cx="94.5" cy="75" r="11.5"/>
							<circle fill="#010101" cx="91.2" cy="112.6" r="11.5"/>
							<circle fill="#010101" cx="87.8" cy="150.5" r="11.5"/>
							<circle fill="#010101" cx="84.7" cy="188.1" r="11.5"/>
							<circle fill="#010101" cx="81.3" cy="225.7" r="11.5"/>
							<circle fill="#010101" cx="78" cy="263.6" r="11.5"/>
							<circle fill="#010101" cx="74.9" cy="301.2" r="11.5"/>
							<circle fill="#010101" cx="71.5" cy="338.8" r="11.5"/>
							<circle fill="#010101" cx="68.1" cy="376.7" r="11.5"/>
							<circle fill="#010101" cx="65.1" cy="414.3" r="11.5"/>
							<circle fill="#010101" cx="61.7" cy="452" r="11.5"/>
							<circle fill="#010101" cx="58.3" cy="489.9" r="11.5"/>
							<circle fill="#010101" cx="55" cy="527.5" r="11.5"/>
							<circle fill="#010101" cx="51.9" cy="565.1" r="11.5"/>
							<circle fill="#010101" cx="48.5" cy="603" r="11.5"/>
							<circle fill="#010101" cx="45.1" cy="640.6" r="11.5"/>
							<circle fill="#010101" cx="42" cy="678.2" r="11.5"/>
							<circle fill="#010101" cx="38.7" cy="716.1" r="11.5"/>
							<circle fill="#010101" cx="35.3" cy="753.7" r="11.5"/>
						</g>
						<g>
							<circle fill="#010101" cx="42.9" cy="32.6" r="11.5"/>
							<circle fill="#010101" cx="39.5" cy="70.2" r="11.5"/>
							<circle fill="#010101" cx="36.4" cy="107.8" r="11.5"/>
							<circle fill="#010101" cx="33.1" cy="145.7" r="11.5"/>
							<circle fill="#010101" cx="29.7" cy="183.3" r="11.5"/>
							<circle fill="#010101" cx="26.6" cy="220.9" r="11.5"/>
							<circle fill="#010101" cx="23.2" cy="258.8" r="11.5"/>
							<circle fill="#010101" cx="19.9" cy="296.4" r="11.5"/>
							<circle fill="#010101" cx="16.8" cy="334.1" r="11.5"/>
							<circle fill="#010101" cx="13.4" cy="372" r="11.5"/>
							<circle fill="#010101" cx="10" cy="409.6" r="11.5"/>
							<circle fill="#010101" cx="7" cy="447.2" r="11.5"/>
							<circle fill="#010101" cx="3.6" cy="485.1" r="11.5"/>
							<circle fill="#010101" cx="0.2" cy="522.7" r="11.5"/>
							<circle fill="#010101" cx="-3.2" cy="560.3" r="11.5"/>
							<circle fill="#010101" cx="-6.2" cy="598.2" r="11.5"/>
							<circle fill="#010101" cx="-9.6" cy="635.8" r="11.5"/>
							<circle fill="#010101" cx="-13" cy="673.5" r="11.5"/>
							<circle fill="#010101" cx="-16.1" cy="711.4" r="11.5"/>
							<circle fill="#010101" cx="-19.4" cy="749" r="11.5"/>
						</g>
						<g>
							<circle fill="#010101" cx="-11.9" cy="27.5" r="11.5"/>
							<circle fill="#010101" cx="-15.2" cy="65.4" r="11.5"/>
							<circle fill="#010101" cx="-18.6" cy="103" r="11.5"/>
							<circle fill="#010101" cx="-21.7" cy="140.9" r="11.5"/>
							<circle fill="#010101" cx="-25.1" cy="178.5" r="11.5"/>
							<circle fill="#010101" cx="-28.4" cy="216.2" r="11.5"/>
							<circle fill="#010101" cx="-31.5" cy="254.1" r="11.5"/>
							<circle fill="#010101" cx="-34.9" cy="291.7" r="11.5"/>
							<circle fill="#010101" cx="-38.2" cy="329.3" r="11.5"/>
							<circle fill="#010101" cx="-41.3" cy="367.2" r="11.5"/>
							<circle fill="#010101" cx="-44.7" cy="404.8" r="11.5"/>
							<circle fill="#010101" cx="-48.1" cy="442.4" r="11.5"/>
							<circle fill="#010101" cx="-51.4" cy="480.3" r="11.5"/>
							<circle fill="#010101" cx="-54.5" cy="517.9" r="11.5"/>
							<circle fill="#010101" cx="-57.9" cy="555.6" r="11.5"/>
							<circle fill="#010101" cx="-61.3" cy="593.4" r="11.5"/>
							<circle fill="#010101" cx="-64.4" cy="631.1" r="11.5"/>
							<circle fill="#010101" cx="-67.7" cy="668.7" r="11.5"/>
							<circle fill="#010101" cx="-71.1" cy="706.6" r="11.5"/>
							<circle fill="#010101" cx="-74.2" cy="744.2" r="11.5"/>
						</g>
						<g>
							<circle fill="#010101" cx="755.9" cy="94.6" r="11.5"/>
							<circle fill="#010101" cx="752.6" cy="132.2" r="11.5"/>
							<circle fill="#010101" cx="749.2" cy="169.8" r="11.5"/>
							<circle fill="#010101" cx="746.1" cy="207.7" r="11.5"/>
							<circle fill="#010101" cx="742.7" cy="245.4" r="11.5"/>
							<circle fill="#010101" cx="739.4" cy="283" r="11.5"/>
							<circle fill="#010101" cx="736.3" cy="320.9" r="11.5"/>
							<circle fill="#010101" cx="732.9" cy="358.5" r="11.5"/>
							<circle fill="#010101" cx="729.5" cy="396.1" r="11.5"/>
							<circle fill="#010101" cx="726.4" cy="434" r="11.5"/>
							<circle fill="#010101" cx="723.1" cy="471.6" r="11.5"/>
							<circle fill="#010101" cx="719.7" cy="509.2" r="11.5"/>
							<circle fill="#010101" cx="716.3" cy="547.1" r="11.5"/>
							<circle fill="#010101" cx="713.3" cy="584.7" r="11.5"/>
							<circle fill="#010101" cx="709.9" cy="622.4" r="11.5"/>
							<circle fill="#010101" cx="706.5" cy="660.3" r="11.5"/>
							<circle fill="#010101" cx="703.4" cy="697.9" r="11.5"/>
							<circle fill="#010101" cx="700.1" cy="735.5" r="11.5"/>
							<circle fill="#010101" cx="696.7" cy="773.4" r="11.5"/>
							<circle fill="#010101" cx="693.6" cy="811" r="11.5"/>
						</g>
					</g>
				</g>
			</g>
		</g>
	</g>
	<g>
		
			<ellipse transform="matrix(-0.9962 -8.674901e-02 8.674901e-02 -0.9962 420.1788 500.1862)" fill="#28353D" cx="221" cy="241" rx="20.5" ry="19.4"/>
		
			<ellipse transform="matrix(-0.9962 -8.674901e-02 8.674901e-02 -0.9962 698.801 536.6248)" fill="#28353D" cx="361.1" cy="253.1" rx="20.5" ry="19.4"/>
	</g>
	<path fill="#28353D" d="M382.9,301.1c-0.8,10.4-48.8,65.1-101.6,60.6s-90.7-66.8-89.8-77.2c0.8-10.4,43.2-0.8,96,3.6
		C340.3,292.7,383.8,291,382.9,301.1z"/>
	<g>
		<path fill="#DB6974" d="M541.5,258.7L59.2,171.6c-0.3-0.1-0.6-0.1-0.9-0.2c-10.3-2.5-14.5-14.7-8.4-23.1l47.5-65
			c3.3-4.6,9.1-6.9,14.7-6l417.4,68.2c8.1,1.5,13.6,8.6,13.2,16.4c-0.1,1.4,0,2.8,0.3,4.2l16,75c1.5,7.1-2.3,14.3-9.1,16.8
			C547.3,258.9,544.4,259.2,541.5,258.7z"/>
	</g>
	<g>
		<path fill="#954D65" d="M540,245L66.9,159.5c-0.3-0.1-0.6-0.1-0.9-0.2c-10.1-2.4-14.2-14.6-8.2-23l46.8-65.1
			c3.3-4.6,8.9-6.9,14.5-6l409.4,66.7c7.9,1.4,13.4,8.5,12.9,16.4c-0.1,1.4,0,2.8,0.3,4.2l15.5,74.9c1.5,7-2.3,14.3-9,16.8
			C545.7,245.2,542.9,245.5,540,245z"/>
	</g>
</g>
<circle fill="#222B30" cx="-323.1" cy="125.8" r="134.2"/>
<rect x="736.8" y="617.7" fill="#F6F5E8" width="186" height="86.8"/>
<rect x="736.8" y="503.3" fill="#ECA13A" width="186" height="86.8"/>
<rect x="736.8" y="389" fill="#DB6974" width="186" height="86.8"/>
<rect x="736.8" y="274.6" fill="#954D65" width="186" height="86.8"/>
<rect x="736.8" y="160.3" fill="#4B3055" width="186" height="86.8"/>
</svg>
