<?xml version="1.0" encoding="utf-8"?>
<!-- Generator: Adobe Illustrator 18.0.0, SVG Export Plug-In . SVG Version: 6.00 Build 0)  -->
<!DOCTYPE svg PUBLIC "-//W3C//DTD SVG 1.1//EN" "http://www.w3.org/Graphics/SVG/1.1/DTD/svg11.dtd">
<svg version="1.1" id="Layer_1" xmlns="http://www.w3.org/2000/svg" xmlns:xlink="http://www.w3.org/1999/xlink" x="0px" y="0px"
	 viewBox="0 0 753.9 965.4" enable-background="new 0 0 753.9 965.4" xml:space="preserve">
<g>
	<g>
		
			<linearGradient id="SVGID_1_" gradientUnits="userSpaceOnUse" x1="-367.571" y1="-393.205" x2="-257.8645" y2="-393.205" gradientTransform="matrix(0.9798 -0.1999 0.1999 0.9798 24.4276 -18.1744)">
			<stop  offset="0" style="stop-color:#F59F1F"/>
			<stop  offset="1" style="stop-color:#7F3F98"/>
		</linearGradient>
		<path fill="url(#SVGID_1_)" d="M-372.4-316.6l-0.9-11.1c-0.1-0.3-0.2-0.5-0.4-0.5c-0.2,0-0.4,0.3-0.8,0.9c-1.1,1.9-2.6,4.2-4.4,7
			c-1.8,2.8-5,6.6-9.7,11.6c-4.7,5-8.7,7.8-12.1,8.5c-0.6,0-1.3-0.1-2.2-0.2c-0.9-0.1-2.2-0.8-3.9-2.1c-1.7-1.3-2.8-3.4-3.4-6.3
			c-0.6-2.9,0.7-7.8,3.9-14.8c3.2-6.9,7.3-13.9,12.3-21c5-7.1,10.9-13.5,17.6-19.3c6.7-5.8,12.9-9.3,18.5-10.5
			c2.2-0.3,4.2,0.9,6,3.5c0.9-1.4,1.8-2.1,2.7-2.3c0.9-0.2,2.1,0.3,3.6,1.4c0.7,0,1.4,0.2,2.2,0.7c0.8,0.5,1.3,1.3,1.5,2.4
			c0.2,1.1-0.3,2.5-1.6,4.2c-1.8,3.4-3.8,7.3-6.2,11.6c-2.4,4.4-4.1,7.5-5.1,9.4c-1,1.9-2.1,4-3.1,6.3c-1.8,4-2.5,7.1-2.3,9.3
			c10.4-7.9,26-23.4,46.9-46.7c1.2,0.6,1.9,1.4,2.1,2.6c0.2,1.1,0,2.2-0.8,3.1c-0.7,1-1.6,2.2-2.7,3.5c-1.1,1.4-3.2,4.1-6.3,8.1
			c-3.2,4-6.2,7.9-9.1,11.6c-2.9,3.7-6.3,7.9-10.1,12.4c-3.8,4.6-7.3,8.5-10.3,11.9c-7.4,8-12.2,12.2-14.3,12.6
			c-2.1,0.4-3.8,0.1-5-1.1C-370.7-310.7-371.7-313.1-372.4-316.6z M-391-320.1c1.3-0.3,4.9-3.9,10.7-10.8
			c5.8-6.9,11.2-13.8,16.3-20.5l7.8-10.2c0.4-0.5,0.5-0.9,0.5-1.1c0-0.2-0.2-0.2-0.6-0.2c-4.3,0.9-9.3,4.5-15.2,10.7
			c-5.9,6.3-10.7,12.7-14.6,19.2c-3.9,6.5-5.6,10.7-5.3,12.6C-391.4-320.2-391.3-320.1-391-320.1z"/>
		
			<linearGradient id="SVGID_2_" gradientUnits="userSpaceOnUse" x1="-299.8866" y1="-420.4164" x2="-165.0342" y2="-420.4164" gradientTransform="matrix(0.9798 -0.1999 0.1999 0.9798 24.4276 -18.1744)">
			<stop  offset="0" style="stop-color:#F59F1F"/>
			<stop  offset="1" style="stop-color:#7F3F98"/>
		</linearGradient>
		<path fill="url(#SVGID_2_)" d="M-295-337.1c0.1,0.3,0.5,0.4,1.2,0.3c0.7-0.1,3.7-2.5,8.8-7.1c13.5-11.8,29.2-27,46.9-45.8
			c1.2,0.6,1.9,1.4,2.1,2.6c0.2,1.1-0.1,2.3-1,3.6c-0.9,1.2-2.2,3-3.9,5.4c-1.7,2.3-5,6.6-9.8,12.7c-4.8,6.1-9.4,11.8-13.6,16.8
			c-11.1,13.4-19.6,21.7-25.5,24.9c-1.9,1-4,1.7-6.4,2.2c-2.3,0.1-4.5-0.3-6.7-1.3c-2.1-1-3.4-2.4-3.7-4.2c-0.4-1.8-0.5-4.6-0.4-8.3
			s0.2-5.7,0.1-6c-0.1-0.3-0.2-0.4-0.3-0.4c-0.2,0-0.4,0.3-0.8,0.9c-1.1,1.9-2.6,4.2-4.4,7c-1.8,2.8-5,6.6-9.7,11.6
			c-4.7,5-8.7,7.8-12.1,8.5c-0.6,0-1.3-0.1-2.2-0.2c-0.9-0.1-2.2-0.8-3.9-2.1c-1.7-1.3-2.8-3.4-3.4-6.3c-0.6-2.9,0.7-7.8,3.8-14.8
			c3.2-6.9,7.3-13.9,12.4-21c5.1-7.1,11-13.5,17.7-19.3c6.7-5.8,12.8-9.3,18.4-10.4c2-0.4,4,0.8,6,3.5c-0.3-0.8,2.3-6.6,7.9-17.5
			c5.5-10.9,12.4-22.2,20.6-33.7c8.2-11.6,15.2-17.9,20.8-19.1c1.9-0.4,3.1,0.3,3.4,2.1c0.6,2.8-0.5,7-3.3,12.6
			c-2.8,5.6-5.9,10.9-9.4,16c-3.5,5-8,11.4-13.6,19.1c-12.9,17.6-22.4,32.3-28.4,44.1C-293.2-348.9-295.8-341-295-337.1z
			 M-324.7-333.7c1.3-0.3,4.9-3.9,10.7-10.8c5.8-6.9,11.3-13.8,16.5-20.6l7.6-10.2c0.4-0.5,0.5-0.9,0.5-1.1c0-0.2-0.2-0.2-0.6-0.2
			c-4.3,0.9-9.3,4.5-15.2,10.7c-5.9,6.3-10.7,12.7-14.6,19.2c-3.9,6.5-5.6,10.7-5.3,12.6C-325.1-333.7-325-333.6-324.7-333.7z"/>
		
			<linearGradient id="SVGID_3_" gradientUnits="userSpaceOnUse" x1="-222.9043" y1="-420.4164" x2="-88.0519" y2="-420.4164" gradientTransform="matrix(0.9798 -0.1999 0.1999 0.9798 24.4276 -18.1744)">
			<stop  offset="0" style="stop-color:#F59F1F"/>
			<stop  offset="1" style="stop-color:#7F3F98"/>
		</linearGradient>
		<path fill="url(#SVGID_3_)" d="M-219.6-352.5c0.1,0.3,0.5,0.4,1.2,0.3c0.7-0.1,3.7-2.5,8.8-7.1c13.5-11.8,29.2-27,46.9-45.8
			c1.2,0.6,1.9,1.4,2.1,2.6c0.2,1.1-0.1,2.3-1,3.6c-0.9,1.2-2.2,3-3.9,5.4c-1.7,2.3-5,6.6-9.8,12.7c-4.8,6.1-9.4,11.8-13.6,16.8
			c-11.1,13.4-19.6,21.7-25.5,24.9c-1.9,1-4,1.7-6.4,2.2c-2.3,0.1-4.5-0.3-6.7-1.3c-2.1-1-3.4-2.4-3.7-4.2c-0.4-1.8-0.5-4.6-0.4-8.3
			c0.1-3.7,0.2-5.7,0.1-6c-0.1-0.3-0.2-0.4-0.3-0.4c-0.2,0-0.4,0.3-0.8,0.9c-1.1,1.9-2.6,4.2-4.4,7c-1.8,2.8-5,6.6-9.7,11.6
			c-4.7,5-8.7,7.8-12.1,8.5c-0.6,0-1.3-0.1-2.2-0.2c-0.9-0.1-2.2-0.8-3.9-2.1c-1.7-1.3-2.8-3.4-3.4-6.3c-0.6-2.9,0.7-7.8,3.8-14.8
			c3.2-6.9,7.3-13.9,12.4-21c5.1-7.1,11-13.5,17.7-19.3c6.7-5.8,12.8-9.3,18.4-10.4c2-0.4,4,0.8,6,3.5c-0.3-0.8,2.3-6.6,7.9-17.5
			c5.5-10.9,12.4-22.2,20.6-33.7c8.2-11.6,15.2-17.9,20.8-19.1c1.9-0.4,3.1,0.3,3.4,2.1c0.6,2.8-0.5,7-3.3,12.6
			c-2.8,5.6-5.9,10.9-9.4,16c-3.5,5-8,11.4-13.6,19.1c-12.9,17.6-22.4,32.3-28.4,44.1C-217.8-364.3-220.4-356.4-219.6-352.5z
			 M-249.3-349c1.3-0.3,4.9-3.9,10.7-10.8c5.8-6.9,11.3-13.8,16.5-20.6l7.6-10.2c0.4-0.5,0.5-0.9,0.5-1.1c0-0.2-0.2-0.2-0.6-0.2
			c-4.3,0.9-9.3,4.5-15.2,10.7c-5.9,6.3-10.7,12.7-14.6,19.2c-3.9,6.5-5.6,10.7-5.3,12.6C-249.7-349.1-249.5-349-249.3-349z"/>
		
			<linearGradient id="SVGID_4_" gradientUnits="userSpaceOnUse" x1="-132.6593" y1="-415.5941" x2="-35.1801" y2="-415.5941" gradientTransform="matrix(0.9798 -0.1999 0.1999 0.9798 24.4276 -18.1744)">
			<stop  offset="0" style="stop-color:#F59F1F"/>
			<stop  offset="1" style="stop-color:#7F3F98"/>
		</linearGradient>
		<path fill="url(#SVGID_4_)" d="M-164-363.3c3.7-0.8,10.4-5.6,20-14.4c9.6-8.9,18.2-17.5,25.9-26l11.6-12.7
			c1.2,0.6,1.9,1.4,2.1,2.6c0.2,1.1-0.1,2.3-1,3.6c-0.9,1.2-2.2,3-3.9,5.4c-1.7,2.3-5,6.6-9.8,12.7c-4.8,6.1-9.4,11.8-13.6,16.8
			c-11.1,13.4-19.6,21.7-25.5,24.9c-1.9,1-3.9,1.7-6.1,2.1c-2.1,0.4-3.9,0.6-5.2,0.5c-1.3-0.1-2.8-0.5-4.5-1.4
			c-3.4-1.9-6-7.1-7.8-15.6c-0.5-2.4-0.2-6.2,0.8-11.4c1-5.2,3.2-11.8,6.5-19.6c3.3-7.8,7.3-15.8,12.2-23.9
			c4.8-8.1,11.4-16.6,19.6-25.4c8.2-8.8,17.3-16.5,27.4-23c1.6-0.9,3-1.5,4.4-1.8c1.4-0.3,2.7,0.1,4.1,1c1.4,1,2.4,2,3.1,3.1
			l1.2,1.5c0.5,2.6-2.3,9.1-8.5,19.5c-6.4,10.8-14.1,21.4-23.1,31.9c-9.1,10.5-17.6,19.6-25.6,27.3c-6.5,6.5-9.2,12.4-8.1,17.8
			C-167.2-364.4-165.9-362.9-164-363.3z M-155.9-401.3c2.8-0.6,9.9-9.2,21.3-26c11.4-16.7,17-25.9,16.6-27.5l-0.2-0.3l-2.6,1.9
			c-5.1,5-11.5,13.1-19.4,24.3c-7.9,11.2-13.1,19.8-15.8,25.7c-0.3,0.7-0.5,1.1-0.4,1.4C-156.3-401.4-156.1-401.3-155.9-401.3z"/>
		
			<linearGradient id="SVGID_5_" gradientUnits="userSpaceOnUse" x1="-78.5815" y1="-393.2913" x2="18.8977" y2="-393.2913" gradientTransform="matrix(0.9798 -0.1999 0.1999 0.9798 24.4276 -18.1744)">
			<stop  offset="0" style="stop-color:#F59F1F"/>
			<stop  offset="1" style="stop-color:#7F3F98"/>
		</linearGradient>
		<path fill="url(#SVGID_5_)" d="M-111.8-359.2c-8.7,1.8-14.1-2.6-16.2-13.2c-1.4-6.6,0.1-14.3,4.4-23c4.3-8.7,9.9-16.2,16.8-22.6
			c6.9-6.4,13.4-10.2,19.5-11.4c2.7-0.6,5.4,0,8.2,1.7c2.7,1.7,4.3,3.5,4.7,5.5c0.8,3.7-1,8.4-5.4,14.2c-4.3,5.7-9.1,10.6-14.3,14.7
			c-5.2,4.1-8.7,6.3-10.6,6.6c-1.9,0.4-3.4-0.2-4.7-1.7c-0.5-0.2-1.2-0.3-2-0.1c-0.8,0.2-1.8,1.9-3,5.3c-1.2,3.3-1.6,6-1.2,7.8
			c0.4,1.9,1.3,2.9,2.7,3c8.5-1.7,17.3-6.1,26.3-13.2c9-7,21-18.7,36.1-34.9c1.1-1.2,2.7-2.9,4.8-5.2c2.2-2.3,3.4-3.7,3.8-4.1
			c1.2,0.6,1.9,1.4,2.1,2.6c0.2,1.1-0.1,2.2-0.9,3.3c-4.5,6.8-10.5,14.6-18,23.4c-7.5,8.8-16.4,17.5-26.8,26.1
			C-95.7-365.7-104.5-360.7-111.8-359.2z M-86.9-420.5c-2.9,0.6-7.3,4.6-13,12.1c-5.7,7.4-8.5,11.8-8.2,13.2c0,0.2,0.2,0.3,0.6,0.2
			c2.5-0.5,6.8-4.3,13.1-11.3c6.2-7,9.2-11.5,8.7-13.6C-85.8-420.4-86.2-420.6-86.9-420.5z"/>
	</g>
	
		<linearGradient id="SVGID_6_" gradientUnits="userSpaceOnUse" x1="-634.8696" y1="-265.5657" x2="-35.8035" y2="-265.5657" gradientTransform="matrix(0.9971 7.647409e-02 -7.647409e-02 0.9971 -3.1499 12.5296)">
		<stop  offset="0" style="stop-color:#7F3F98"/>
		<stop  offset="1" style="stop-color:#F59F1F"/>
	</linearGradient>
	<path fill="url(#SVGID_6_)" d="M-598.3-261.6c-5.3,6.7-7.4,6.6-23.5,38.2c20.2-18.6,158.4-67,158.4-67l-37.4,73.6
		c347.5-162.9,487.5-105,487.5-105C-181.8-388.9-483-240.5-483-240.5l44.3-77.8c0,0-107.5,46.1-146.5,53.6
		C-601.3-261.6-598.3-261.6-598.3-261.6z"/>
	
		<linearGradient id="SVGID_7_" gradientUnits="userSpaceOnUse" x1="-582.0131" y1="-316.4005" x2="-374.3813" y2="-316.4005" gradientTransform="matrix(0.9956 9.365986e-02 -9.365986e-02 0.9956 -9.6229 28.5609)">
		<stop  offset="0" style="stop-color:#F59F1F"/>
		<stop  offset="1" style="stop-color:#7F3F98"/>
	</linearGradient>
	<path fill="url(#SVGID_7_)" d="M-341.9-452.3c-2.4-9.2-7-16.9-13.9-23.1c-6.9-6.2-14.8-10.4-23.7-12.8c-18.4-4.6-36.3-4.6-53.9-0.2
		c-17.6,4.5-34.9,11.9-52,22.2c-17.1,10.3-30.8,21.2-41.1,32.5c-10.3,11.3-18.2,22.5-23.5,33.5c-5.3,11-7,20.4-5,28.1
		c2,7.7,6.2,13.1,12.7,16.2c6.5,3.1,12.5,3.9,18,2.5c5.5-1.4,10.9-4.3,16.1-8.6c5.2-4.3,9.6-9.1,13.3-14.3c3.7-5.2,7-10.4,9.9-15.7
		c2.9-5.3,5.1-9.7,6.6-13.3c1.5-3.6,2.2-5.6,2.1-6c-0.1-0.5-0.4-0.6-0.9-0.5c-0.5,0.1-1.2,0.7-2.3,1.7
		c-14.8,14.6-30.5,27.2-47.1,37.8c-5.2,3.2-8.4,5-9.6,5.4c-1.3,0.3-2.1-0.2-2.4-1.6c-0.3-1.4,1.2-4.9,4.7-10.5
		c3.5-5.6,9-12.5,16.6-20.7c7.6-8.2,16.3-16.5,26.3-24.8c9.9-8.3,22.1-16.3,36.3-23.9c14.3-7.6,28-13.1,41.1-16.4
		c13.1-3.4,25.8-5,38-5c12.2,0,19,3,20.5,9c1.8,7.3-0.6,16.2-7.3,26.9c-6.7,10.7-15.4,20.7-25.9,30.1c-10.6,9.4-21.5,17.7-32.9,25
		c-11.4,7.3-20.7,11.9-27.9,13.8c-1.6,0.4-2.6,0-2.9-1.3c-0.1-0.5-0.1-1.1,0.1-1.8l11.4-23.7c1.9-3.8,7.9-14.5,17.9-32.1
		c0.5-0.9,0.6-2,0.3-3.3c-0.3-1.3-1.4-2.2-3.1-2.7c-1.8-0.5-3.4-0.6-4.8-0.2c-1.5,0.4-3.4,1.7-6,3.8c-12,11.2-18,16.3-40.7,59.5
		c-15.8,30.1-25.7,52.7-29.8,67.9c-0.2,0.2-0.4,0.3-0.4,0.3S-557-167-538.5-173.8c0,0,46-100.3,63.2-138.4c0.1,0,0.2,0,0.3,0
		c0.5-1.4,1.1-2.9,1.7-4.3c2.2-4.9,3.7-8.2,4.2-9.5c0.3-0.8,0.3-1.2,0.2-1.5c3.8-9.5,8.1-20.2,12.9-31.9c8,8.8,18.2,11.6,30.4,8.5
		c12.2-3.1,25.6-11,40-23.7c14.4-12.7,25.9-26.5,34.5-41.4C-342.7-431-339.6-443.1-341.9-452.3z"/>
</g>
<g>
	<g>
		<path fill="#F59F1F" d="M-1170.4-370.4l-59.5-15.6c-2.3,3.7-3.9,7.8-4.2,12c-0.6,7.1,1.2,13.2-1.9,20c-0.5,1.1-1.1,2.3-1.7,3.3
			l-24.5,15.8c-0.2,0.1-0.5,0.4-0.8,0.7c-0.3,0.1-0.6,0.3-0.9,0.5c-2.5,1.8-2.8,5.8-0.6,8.9c2.2,3.1,6.1,4.2,8.6,2.5
			c0.3-0.2,0.5-0.4,0.8-0.7c0.4-0.2,0.8-0.4,1-0.5l23.3-18c1.8-0.6,4.8-0.5,6.2-0.5c6.9-0.1,12.8,4.4,19.6,4.8
			c7.5,0.5,15-1.5,21.2-5.8C-1174.8-349.5-1170-359.9-1170.4-370.4z"/>
	</g>
	<g>
		<path fill="#552956" d="M-1234.3-359.9c-0.3,1.9-0.8,3.9-1.7,5.9c-0.5,1.1-1.1,2.3-1.7,3.3l-24.5,15.8c-0.2,0.1-0.5,0.4-0.8,0.7
			c-0.3,0.1-0.6,0.3-0.9,0.5c-2.5,1.8-2.8,5.8-0.6,8.9c2.2,3.1,6.1,4.2,8.6,2.5c0.3-0.2,0.5-0.4,0.8-0.7c0.4-0.2,0.8-0.4,1-0.5
			l23.3-18c1.8-0.6,4.8-0.5,6.2-0.5c6.9-0.1,12.8,4.4,19.6,4.8c7.5,0.5,15-1.5,21.2-5.8c1.2-0.9,2.3-1.8,3.4-2.8L-1234.3-359.9z"/>
	</g>
	<g>
		<path fill="#E16A5E" d="M-1170.5-370.3c-0.3-5.9-2.2-11.8-5.8-16.9c-10.2-14.5-30.3-17.9-44.7-7.7c-3.3,2.4-6.4,5.5-8.7,9.1
			L-1170.5-370.3z"/>
	</g>
</g>
<linearGradient id="SVGID_8_" gradientUnits="userSpaceOnUse" x1="-1129.1816" y1="-642.3139" x2="-1017.2671" y2="-642.3139" gradientTransform="matrix(0.8108 0.5853 -0.5853 0.8108 -597.7271 532.5839)">
	<stop  offset="0" style="stop-color:#7F3F98"/>
	<stop  offset="1" style="stop-color:#F59F1F"/>
</linearGradient>
<polygon fill="url(#SVGID_8_)" points="-1151.2,-593.4 -1130,-659.3 -1060.9,-659.5 -1039.3,-593.8 -1095.1,-553 "/>
<linearGradient id="SVGID_9_" gradientUnits="userSpaceOnUse" x1="-710.4554" y1="-620.7327" x2="-448.4554" y2="-620.7327">
	<stop  offset="0" style="stop-color:#F59F1F"/>
	<stop  offset="1" style="stop-color:#7F3F98"/>
</linearGradient>
<polygon fill="url(#SVGID_9_)" points="-674.5,-470.2 -630.5,-566.4 -710.5,-630.9 -579.5,-749.6 -690.5,-771.3 -491.4,-771.3 
	-448.5,-771.3 -636.5,-649.8 -562.8,-616.8 "/>
<g>
	<g>
		<path fill="#964E66" d="M-932.7-201.2c-7.1,10.5-13.7,20.5-26.1,27.6c-2.9,1.7-6.1,3.4-9.2,4.7l-80.7-3.9c-0.6,0-1.6,0.1-3,0.3
			c-0.9-0.2-1.8-0.3-2.8-0.4c-8.6,0-15.6,8.6-15.6,19.2s6.9,19.3,15.5,19.4c1,0,1.9-0.1,2.8-0.3c1.3,0.2,2.4,0.3,3,0.4l81.5-3.1
			c5.1,1.6,11.6,6.7,14.7,8.9c8.5,5.9,14.1,14.3,19.8,22.6V-201.2z"/>
	</g>
	<g>
		<path fill="#E16A5E" d="M-858.3-242.6c-22.1-0.1-46.3,8.2-61.7,24.5v128.6c1.2,1.2,2.4,2.3,3.8,3.4c16.1,13.2,36.2,20.8,57.1,21
			c48.9,0.3,89-39.3,89.3-88.3C-769.6-202.4-809.4-242.4-858.3-242.6z"/>
	</g>
</g>
<g>
	<path fill="#F59F1F" d="M-856.7-226.2c-18-0.1-37.8,6.7-50.3,20v104.9c1,1,2,1.9,3.1,2.8c13.2,10.7,29.5,17,46.6,17.1
		c39.9,0.2,72.6-32,72.8-72C-784.3-193.4-816.8-226-856.7-226.2z"/>
</g>
<g>
	<g>
		<circle fill="#E0D8D0" cx="-791.6" cy="-209.2" r="28.5"/>
	</g>
	<ellipse fill="#FAF5EF" cx="-801.6" cy="-217.3" rx="10.5" ry="9.9"/>
</g>
<path fill="#F7F5E8" d="M-237.9,301.6h-159.3c-7.4,0-13.4-6-13.4-13.4v-60.1c0-7.4,6-13.4,13.4-13.4h159.3c7.4,0,13.4,6,13.4,13.4
	v60.1C-224.6,295.6-230.6,301.6-237.9,301.6z"/>
<path fill="#202020" d="M-237.9,419.6h-159.3c-7.4,0-13.4-6-13.4-13.4v-60.1c0-7.4,6-13.4,13.4-13.4h159.3c7.4,0,13.4,6,13.4,13.4
	v60.1C-224.6,413.6-230.6,419.6-237.9,419.6z"/>
<rect x="-410.6" y="100.4" fill="#EDA23A" width="186" height="86.8"/>
<rect x="-410.6" y="-13.9" fill="#DC6975" width="186" height="86.8"/>
<rect x="-410.6" y="-128.3" fill="#964E66" width="186" height="86.8"/>
<rect x="-410.6" y="-242.6" fill="#4C3155" width="186" height="86.8"/>
<polygon fill="#964E66" points="392.4,-58.3 234.9,-543 647.2,-842.6 1059.5,-543 902,-58.3 "/>
<g>
	<linearGradient id="SVGID_10_" gradientUnits="userSpaceOnUse" x1="0" y1="419.6053" x2="753.8815" y2="419.6053">
		<stop  offset="0" style="stop-color:#F59F1F"/>
		<stop  offset="1" style="stop-color:#7F3F98"/>
	</linearGradient>
	<path fill="url(#SVGID_10_)" d="M0,581l3-329.6c0.3-32.1,17.7-61.7,45.7-77.5l287-162.2c28-15.8,62.3-15.5,90,0.8l284,167.4
		c27.7,16.3,44.6,46.2,44.3,78.3l-3,329.6c-0.3,32.1-17.7,61.7-45.7,77.5l-287,162.2c-28,15.8-62.3,15.5-90-0.8l-284-167.4
		C16.6,643-0.3,613.2,0,581z"/>
	<path fill="#202020" d="M652,245.5c-6.1-23.9-18-43.8-35.8-59.7c-17.8-15.9-38.2-26.9-61.2-33c-47.4-11.9-93.8-12-139.2-0.4
		c-45.4,11.6-90.2,30.7-134.2,57.4c-44.1,26.7-79.4,54.7-106.1,83.9c-26.7,29.2-46.9,58.1-60.6,86.5c-13.7,28.4-18,52.6-12.9,72.5
		c5.1,19.9,16,33.8,32.7,41.8c16.7,8,32.2,10.1,46.5,6.5c14.3-3.6,28.1-11,41.5-22.2c13.4-11.1,24.8-23.4,34.4-36.8
		c9.5-13.4,18.1-26.9,25.6-40.5c7.5-13.6,13.2-25,17.1-34.3c3.9-9.2,5.7-14.4,5.4-15.6c-0.3-1.2-1-1.6-2.2-1.3
		c-1.2,0.3-3.2,1.8-6,4.5c-38.3,37.7-78.8,70.2-121.7,97.6c-13.3,8.4-21.6,13-24.9,13.8c-3.3,0.8-5.4-0.5-6.3-4
		c-0.9-3.5,3.2-12.5,12.2-27c9-14.5,23.3-32.4,42.8-53.5c19.5-21.2,42.1-42.5,67.8-64c25.7-21.5,57-42.1,93.8-61.7
		c36.9-19.6,72.3-33.8,106.2-42.4c33.9-8.6,66.6-13,98-13c31.4,0,49.1,7.7,53,23.1c4.8,18.7-1.5,41.9-18.9,69.5
		c-17.4,27.6-39.7,53.5-67,77.7c-27.3,24.1-55.5,45.7-84.9,64.6c-29.3,19-53.4,30.8-72.1,35.6c-4.2,1.1-6.7,0-7.6-3.3
		c-0.4-1.4-0.3-2.9,0.3-4.6l29.5-61.1c5-9.7,20.4-37.4,46.2-82.8c1.4-2.3,1.7-5.2,0.8-8.4c-0.8-3.3-3.5-5.6-8.1-6.9
		c-4.6-1.3-8.7-1.5-12.5-0.6c-3.8,1-8.9,4.3-15.4,9.9c-31,28.8-46.5,42-105,153.6c-40.8,77.8-66.4,136.2-77,175.3
		c-0.6,0.5-1,0.9-1,0.9s-128.6,339.2-81,321.7c0,0,118.8-259,163.1-357.3c0.2,0,0.4,0,0.7,0c1.4-3.6,2.9-7.4,4.3-11.2
		c5.6-12.6,9.5-21.3,10.8-24.6c0.8-2,0.9-3.2,0.4-3.9c9.8-24.6,20.9-52,33.4-82.4c20.7,22.6,46.9,29.9,78.5,21.9
		c31.6-8.1,66.1-28.4,103.3-61.1c37.3-32.7,67-68.3,89.1-106.9C650.1,300.6,658.1,269.4,652,245.5z"/>
</g>
</svg>
